<?xml version="1.0" encoding="utf-8"?>
<!-- Generator: Adobe Illustrator 21.1.0, SVG Export Plug-In . SVG Version: 6.00 Build 0)  -->
<svg version="1.1" id="Layer_1" xmlns="http://www.w3.org/2000/svg" xmlns:xlink="http://www.w3.org/1999/xlink" x="0px" y="0px"
	 viewBox="0 0 90.3 81.9" style="enable-background:new 0 0 90.3 81.9;" xml:space="preserve">
<style type="text/css">
	.st0{fill:url(#SVGID_1_);}
	.st1{fill:url(#SVGID_2_);}
</style>
<g>
	
		<linearGradient id="SVGID_1_" gradientUnits="userSpaceOnUse" x1="-19.9604" y1="71.8851" x2="82.5528" y2="-29.0191" gradientTransform="matrix(1 0 0 -1 0 84)">
		<stop  offset="0" style="stop-color:#3498DB"/>
		<stop  offset="1" style="stop-color:#9B59B6"/>
	</linearGradient>
	<polygon class="st0" points="45.1,55.6 29.9,81.8 60.2,81.8 	"/>
	
		<linearGradient id="SVGID_2_" gradientUnits="userSpaceOnUse" x1="-10.2359" y1="81.7646" x2="92.2773" y2="-19.1396" gradientTransform="matrix(1 0 0 -1 0 84)">
		<stop  offset="0" style="stop-color:#3498DB"/>
		<stop  offset="1" style="stop-color:#9B59B6"/>
	</linearGradient>
	<path class="st1" d="M27.3,60.6l18-31.1l18,31.1l0,0l12,20.8h3c4.3,0,8.3-2.3,10.5-6.1c2.2-3.7,2.2-8.4,0-12.1L55.8,6.1
		C53.6,2.4,49.6,0,45.3,0S37,2.3,34.8,6.1L1.9,63.2c-2.2,3.7-2.2,8.4,0,12.1c2.2,3.7,6.2,6.1,10.5,6.1h3L27.3,60.6L27.3,60.6z"/>
</g>
</svg>
