<?xml version="1.0" encoding="utf-8"?>
<!-- Generator: Adobe Illustrator 21.1.0, SVG Export Plug-In . SVG Version: 6.00 Build 0)  -->
<svg version="1.1" id="Layer_1" xmlns="http://www.w3.org/2000/svg" xmlns:xlink="http://www.w3.org/1999/xlink" x="0px" y="0px"
	 viewBox="0 0 117 40" style="enable-background:new 0 0 117 40;" xml:space="preserve">
<style type="text/css">
	.st0{fill:url(#SVGID_1_);}
	.st1{fill:url(#SVGID_2_);}
	.st2{fill:url(#SVGID_3_);}
	.st3{fill:url(#SVGID_4_);}
	.st4{fill:url(#SVGID_5_);}
	.st5{fill:url(#SVGID_6_);}
	.st6{fill:url(#SVGID_7_);}
	.st7{fill:url(#SVGID_8_);}
	.st8{fill:url(#SVGID_9_);}
	.st9{fill:url(#SVGID_10_);}
	.st10{fill:url(#SVGID_11_);}
	.st11{fill:url(#SVGID_12_);}
	.st12{fill:url(#SVGID_13_);}
	.st13{fill:url(#SVGID_14_);}
	.st14{fill:url(#SVGID_15_);}
	.st15{fill:url(#SVGID_16_);}
	.st16{fill:url(#SVGID_17_);}
	.st17{fill:url(#SVGID_18_);}
	.st18{fill:url(#SVGID_19_);}
	.st19{fill:url(#SVGID_20_);}
	.st20{fill:url(#SVGID_21_);}
	.st21{fill:url(#SVGID_22_);}
	.st22{fill:url(#SVGID_23_);}
</style>
<g>
	<g>
		<linearGradient id="SVGID_1_" gradientUnits="userSpaceOnUse" x1="111.483" y1="-28.3012" x2="-17.651" y2="34.3625">
			<stop  offset="0" style="stop-color:#3498DB"/>
			<stop  offset="1" style="stop-color:#9B59B6"/>
		</linearGradient>
		<path class="st0" d="M3.5,27.8l7-18.3h1.5l6.9,18.3h-1.4L15.2,22H7.1l-2.3,5.9H3.5z M14.8,20.8L11.1,11l-3.7,9.8H14.8z"/>
		<linearGradient id="SVGID_2_" gradientUnits="userSpaceOnUse" x1="114.5336" y1="-22.0148" x2="-14.6004" y2="40.6489">
			<stop  offset="0" style="stop-color:#3498DB"/>
			<stop  offset="1" style="stop-color:#9B59B6"/>
		</linearGradient>
		<path class="st1" d="M21.7,26.1c-1.1-1.3-1.6-3-1.6-4.9c0-1.9,0.5-3.6,1.6-5c1.1-1.4,2.4-2.1,3.9-2.1c1,0,1.9,0.3,2.7,0.9
			c0.8,0.6,1.4,1.4,1.7,2.4v-8h1.2v18.3h-1.2v-2.7c-0.3,0.9-0.9,1.6-1.7,2.2c-0.8,0.6-1.7,0.8-2.7,0.8
			C24.1,28.2,22.8,27.5,21.7,26.1z M28.8,25.5c0.9-1.2,1.3-2.6,1.3-4.2c0-1.6-0.4-3-1.3-4.2c-0.9-1.2-1.9-1.8-3.1-1.8
			c-1.2,0-2.2,0.6-3.1,1.8c-0.9,1.1-1.3,2.5-1.3,4.2c0,1.6,0.4,3,1.3,4.2c0.9,1.2,1.9,1.8,3.1,1.8C26.9,27.2,27.9,26.6,28.8,25.5z"
			/>
		<linearGradient id="SVGID_3_" gradientUnits="userSpaceOnUse" x1="117.3283" y1="-16.2556" x2="-11.8057" y2="46.4081">
			<stop  offset="0" style="stop-color:#3498DB"/>
			<stop  offset="1" style="stop-color:#9B59B6"/>
		</linearGradient>
		<path class="st2" d="M35.8,26.4c-1-1.3-1.5-3-1.5-5.1s0.5-3.8,1.5-5.1c1-1.3,2.4-1.9,4.1-1.9c1.7,0,3.1,0.6,4.1,1.8
			c1,1.2,1.5,2.7,1.5,4.7v0.6H35.5c0,1.8,0.4,3.2,1.2,4.3c0.8,1.1,1.9,1.6,3.2,1.6c1,0,1.9-0.3,2.7-0.8c0.8-0.6,1.4-1.3,1.7-2.2h1.2
			c-0.2,1.2-0.8,2.2-1.9,3c-1.1,0.8-2.3,1.2-3.7,1.2C38.2,28.3,36.8,27.6,35.8,26.4z M44.4,20.1v-0.5c-0.1-1.2-0.6-2.2-1.4-3.1
			c-0.9-0.8-1.9-1.2-3-1.2c-1.1,0-2.1,0.4-3,1.3c-0.9,0.9-1.4,1.9-1.5,3.2v0.3H44.4z"/>
		<linearGradient id="SVGID_4_" gradientUnits="userSpaceOnUse" x1="118.5725" y1="-13.6915" x2="-10.5615" y2="48.9722">
			<stop  offset="0" style="stop-color:#3498DB"/>
			<stop  offset="1" style="stop-color:#9B59B6"/>
		</linearGradient>
		<path class="st3" d="M49.1,27.5c-0.5-0.5-0.7-1.2-0.7-2v-9.8h-1.8v-1h1.8V11h1.2v3.7h1.7v1h-1.7v9.8c0,0.5,0.1,1,0.4,1.3
			c0.2,0.4,0.5,0.6,0.9,0.6c0.4,0,0.7-0.1,0.9-0.2V28c-0.4,0.2-0.8,0.2-1,0.2C50.2,28.3,49.6,28,49.1,27.5z"/>
		<linearGradient id="SVGID_5_" gradientUnits="userSpaceOnUse" x1="119.7235" y1="-11.3196" x2="-9.4105" y2="51.344">
			<stop  offset="0" style="stop-color:#3498DB"/>
			<stop  offset="1" style="stop-color:#9B59B6"/>
		</linearGradient>
		<path class="st4" d="M57,27.5c-0.8-0.5-1.4-1.3-1.8-2.2v2.6H54V9.6h1.2v8.1c0.3-0.9,0.9-1.7,1.7-2.3c0.8-0.6,1.7-0.9,2.7-0.9
			c1.7,0,3,0.6,4,1.9c1,1.3,1.5,2.9,1.5,5c0,2.1-0.5,3.8-1.5,5c-1,1.3-2.3,1.9-4,1.9C58.6,28.3,57.8,28,57,27.5z M62.8,25.6
			c0.8-1.1,1.2-2.5,1.2-4.2s-0.4-3.2-1.2-4.2c-0.8-1.1-1.9-1.6-3.2-1.6c-1.2,0-2.3,0.6-3.1,1.7c-0.9,1.1-1.3,2.5-1.3,4.1
			s0.4,3,1.3,4.1c0.9,1.1,1.9,1.7,3.1,1.7C60.9,27.2,62,26.7,62.8,25.6z"/>
		<linearGradient id="SVGID_6_" gradientUnits="userSpaceOnUse" x1="123.6275" y1="-3.2744" x2="-5.5065" y2="59.3892">
			<stop  offset="0" style="stop-color:#3498DB"/>
			<stop  offset="1" style="stop-color:#9B59B6"/>
		</linearGradient>
		<path class="st5" d="M68.9,26.4c-1-1.3-1.5-3-1.5-5.1s0.5-3.8,1.5-5.1c1-1.3,2.4-1.9,4.1-1.9c1.7,0,3.1,0.6,4.1,1.8
			c1,1.2,1.5,2.7,1.5,4.7v0.6H68.5c0,1.8,0.4,3.2,1.2,4.3c0.8,1.1,1.9,1.6,3.2,1.6c1,0,1.9-0.3,2.7-0.8c0.8-0.6,1.4-1.3,1.7-2.2h1.2
			c-0.2,1.2-0.8,2.2-1.9,3c-1.1,0.8-2.3,1.2-3.7,1.2C71.3,28.3,69.9,27.6,68.9,26.4z M77.4,20.1v-0.5c-0.1-1.2-0.6-2.2-1.4-3.1
			c-0.9-0.8-1.9-1.2-3-1.2c-1.1,0-2.1,0.4-3,1.3c-0.9,0.9-1.4,1.9-1.5,3.2v0.3H77.4z"/>
		<linearGradient id="SVGID_7_" gradientUnits="userSpaceOnUse" x1="125.1598" y1="-0.1169" x2="-3.9742" y2="62.5468">
			<stop  offset="0" style="stop-color:#3498DB"/>
			<stop  offset="1" style="stop-color:#9B59B6"/>
		</linearGradient>
		<path class="st6" d="M81.4,27.8V9.6h1.2v11.9l6.8-6.8h1.5L86,19.5l5.4,8.3h-1.2l-5-7.5l-2.6,2.6v4.9H81.4z"/>
		<linearGradient id="SVGID_8_" gradientUnits="userSpaceOnUse" x1="128.4695" y1="6.7035" x2="-0.6645" y2="69.3672">
			<stop  offset="0" style="stop-color:#3498DB"/>
			<stop  offset="1" style="stop-color:#9B59B6"/>
		</linearGradient>
		<path class="st7" d="M94.4,26.2c-1.1-1.2-1.6-2.9-1.6-4.9c0-2.1,0.5-3.8,1.6-5.1c1.1-1.3,2.5-1.9,4.3-1.9c1.8,0,3.2,0.6,4.3,1.9
			c1.1,1.3,1.6,3,1.6,5.1c0,2.1-0.5,3.7-1.6,4.9c-1.1,1.2-2.5,1.8-4.3,1.8C96.9,28,95.5,27.4,94.4,26.2z M102.2,25.4
			c0.9-1,1.3-2.4,1.3-4.2c0-1.8-0.4-3.2-1.3-4.3c-0.9-1.1-2-1.6-3.4-1.6c-1.4,0-2.6,0.5-3.4,1.6C94.4,18,94,19.5,94,21.3
			c0,1.7,0.4,3.1,1.3,4.2c0.9,1,2,1.6,3.4,1.6C100.1,27,101.3,26.5,102.2,25.4z"/>
		<linearGradient id="SVGID_9_" gradientUnits="userSpaceOnUse" x1="130.4936" y1="10.8747" x2="1.3596" y2="73.5384">
			<stop  offset="0" style="stop-color:#3498DB"/>
			<stop  offset="1" style="stop-color:#9B59B6"/>
		</linearGradient>
		<path class="st8" d="M110.8,27.8l-4.7-13.1h1.1l4.3,11.7l4.1-11.7h1.1l-4.6,13.1H110.8z"/>
	</g>
	<g>
		<linearGradient id="SVGID_10_" gradientUnits="userSpaceOnUse" x1="116.7801" y1="-17.3852" x2="-12.3539" y2="45.2784">
			<stop  offset="0" style="stop-color:#3498DB"/>
			<stop  offset="1" style="stop-color:#9B59B6"/>
		</linearGradient>
		<path class="st9" d="M3.9,38.9C3.3,38.2,3,37.3,3,36.3c0-1,0.3-1.9,0.9-2.6c0.6-0.7,1.4-1.1,2.2-1.1c0.7,0,1.3,0.2,1.8,0.7
			c0.5,0.5,0.8,1,0.8,1.6H8.1c0-0.5-0.2-0.8-0.6-1.2c-0.4-0.3-0.8-0.5-1.4-0.5c-0.7,0-1.3,0.3-1.8,0.9c-0.5,0.6-0.7,1.3-0.7,2.2
			c0,0.9,0.2,1.6,0.7,2.2c0.5,0.6,1.1,0.9,1.8,0.9c0.5,0,1-0.2,1.4-0.5c0.4-0.3,0.6-0.7,0.6-1.2h0.7c0,0.6-0.3,1.2-0.8,1.6
			C7.5,39.8,6.9,40,6.1,40C5.3,40,4.5,39.6,3.9,38.9z"/>
		<linearGradient id="SVGID_11_" gradientUnits="userSpaceOnUse" x1="117.5759" y1="-15.7453" x2="-11.5581" y2="46.9184">
			<stop  offset="0" style="stop-color:#3498DB"/>
			<stop  offset="1" style="stop-color:#9B59B6"/>
		</linearGradient>
		<path class="st10" d="M10.1,39.7v-6.9h0.6v1.5c0.2-0.5,0.4-0.9,0.8-1.2c0.4-0.3,0.7-0.5,1.1-0.5H13v0.7c0,0-0.1,0-0.1,0
			c0,0-0.1,0-0.1,0c-0.5,0-0.9,0.2-1.3,0.6c-0.4,0.4-0.6,1-0.8,1.6v4H10.1z"/>
		<linearGradient id="SVGID_12_" gradientUnits="userSpaceOnUse" x1="118.766" y1="-13.2928" x2="-10.368" y2="49.3709">
			<stop  offset="0" style="stop-color:#3498DB"/>
			<stop  offset="1" style="stop-color:#9B59B6"/>
		</linearGradient>
		<path class="st11" d="M14.4,38.9c-0.5-0.7-0.8-1.6-0.8-2.7c0-1.1,0.3-2,0.8-2.7c0.5-0.7,1.3-1,2.1-1c0.9,0,1.6,0.3,2.1,0.9
			c0.5,0.6,0.8,1.4,0.8,2.4v0.3h-5.3c0,0.9,0.2,1.7,0.6,2.2c0.4,0.6,1,0.8,1.7,0.8c0.5,0,1-0.1,1.4-0.4c0.4-0.3,0.7-0.7,0.9-1.2h0.6
			c-0.1,0.6-0.4,1.2-1,1.6s-1.2,0.6-2,0.6C15.7,39.9,15,39.6,14.4,38.9z M18.9,35.7v-0.2c-0.1-0.6-0.3-1.2-0.7-1.6
			c-0.5-0.4-1-0.6-1.6-0.6c-0.6,0-1.1,0.2-1.6,0.7c-0.5,0.5-0.7,1-0.8,1.7v0.2H18.9z"/>
		<linearGradient id="SVGID_13_" gradientUnits="userSpaceOnUse" x1="120.2265" y1="-10.2832" x2="-8.9075" y2="52.3805">
			<stop  offset="0" style="stop-color:#3498DB"/>
			<stop  offset="1" style="stop-color:#9B59B6"/>
		</linearGradient>
		<path class="st12" d="M21.1,39.4c-0.5-0.4-0.7-0.8-0.7-1.4c0-0.5,0.2-1,0.7-1.4c0.4-0.4,1-0.6,1.7-0.7c0.7-0.1,1.2-0.2,1.6-0.3
			c0.4-0.1,0.6-0.3,0.6-0.5v-0.6c0-0.4-0.2-0.7-0.6-0.9c-0.4-0.2-0.8-0.4-1.3-0.4c-0.5,0-0.9,0.1-1.3,0.4c-0.4,0.2-0.5,0.5-0.5,0.9
			v0.4h-0.6v-0.4c0-0.5,0.2-0.9,0.7-1.2c0.5-0.3,1-0.5,1.7-0.5c0.7,0,1.3,0.2,1.8,0.5c0.5,0.3,0.7,0.7,0.7,1.1v4.2
			c0,0.3,0.1,0.5,0.2,0.7c0.1,0.2,0.3,0.3,0.4,0.3c0.1,0,0.1,0,0.1,0c0,0,0.1,0,0.1,0v0.3c-0.2,0.1-0.4,0.1-0.6,0.1
			c-0.2,0-0.4-0.1-0.6-0.3C25.1,39.3,25,39,25,38.7c-0.1,0.4-0.4,0.7-0.8,0.9c-0.4,0.2-0.9,0.3-1.4,0.3
			C22.2,39.9,21.6,39.7,21.1,39.4z M24.3,38.9c0.4-0.4,0.7-0.8,0.8-1.4v-1.6c-0.1,0.1-0.4,0.2-0.8,0.3c-0.4,0.1-0.8,0.2-1.4,0.2
			c-0.5,0-0.9,0.2-1.2,0.5c-0.3,0.3-0.5,0.6-0.5,1c0,0.4,0.2,0.8,0.5,1c0.3,0.3,0.7,0.4,1.2,0.4C23.4,39.5,23.8,39.3,24.3,38.9z"/>
		<linearGradient id="SVGID_14_" gradientUnits="userSpaceOnUse" x1="120.6853" y1="-9.3376" x2="-8.4487" y2="53.3261">
			<stop  offset="0" style="stop-color:#3498DB"/>
			<stop  offset="1" style="stop-color:#9B59B6"/>
		</linearGradient>
		<path class="st13" d="M28.1,39.5c-0.2-0.3-0.4-0.6-0.4-1v-5.1h-0.9v-0.5h0.9v-1.9h0.6v1.9h0.9v0.5h-0.9v5.1c0,0.3,0.1,0.5,0.2,0.7
			c0.1,0.2,0.3,0.3,0.5,0.3c0.2,0,0.4,0,0.5-0.1v0.5c-0.2,0.1-0.4,0.1-0.5,0.1C28.6,39.9,28.3,39.8,28.1,39.5z"/>
		<linearGradient id="SVGID_15_" gradientUnits="userSpaceOnUse" x1="120.9556" y1="-8.7806" x2="-8.1784" y2="53.8831">
			<stop  offset="0" style="stop-color:#3498DB"/>
			<stop  offset="1" style="stop-color:#9B59B6"/>
		</linearGradient>
		<path class="st14" d="M30.6,30.2h0.6v1h-0.6V30.2z M30.6,39.7v-6.9h0.6v6.9H30.6z"/>
		<linearGradient id="SVGID_16_" gradientUnits="userSpaceOnUse" x1="122.0677" y1="-6.4889" x2="-7.0663" y2="56.1748">
			<stop  offset="0" style="stop-color:#3498DB"/>
			<stop  offset="1" style="stop-color:#9B59B6"/>
		</linearGradient>
		<path class="st15" d="M34.9,39.7l-2.5-6.9H33l2.3,6.1l2.1-6.1h0.6l-2.4,6.9H34.9z"/>
		<linearGradient id="SVGID_17_" gradientUnits="userSpaceOnUse" x1="123.5492" y1="-3.4359" x2="-5.5848" y2="59.2278">
			<stop  offset="0" style="stop-color:#3498DB"/>
			<stop  offset="1" style="stop-color:#9B59B6"/>
		</linearGradient>
		<path class="st16" d="M39.5,38.9c-0.5-0.7-0.8-1.6-0.8-2.7c0-1.1,0.3-2,0.8-2.7c0.5-0.7,1.3-1,2.1-1c0.9,0,1.6,0.3,2.1,0.9
			c0.5,0.6,0.8,1.4,0.8,2.4v0.3h-5.3c0,0.9,0.2,1.7,0.6,2.2c0.4,0.6,1,0.8,1.7,0.8c0.5,0,1-0.1,1.4-0.4c0.4-0.3,0.7-0.7,0.9-1.2h0.6
			c-0.1,0.6-0.4,1.2-1,1.6c-0.6,0.4-1.2,0.6-2,0.6C40.8,39.9,40.1,39.6,39.5,38.9z M44,35.7v-0.2c-0.1-0.6-0.3-1.2-0.7-1.6
			c-0.5-0.4-1-0.6-1.6-0.6c-0.6,0-1.1,0.2-1.6,0.7c-0.5,0.5-0.7,1-0.8,1.7v0.2H44z"/>
		<linearGradient id="SVGID_18_" gradientUnits="userSpaceOnUse" x1="125.0179" y1="-0.4092" x2="-4.1161" y2="62.2544">
			<stop  offset="0" style="stop-color:#3498DB"/>
			<stop  offset="1" style="stop-color:#9B59B6"/>
		</linearGradient>
		<path class="st17" d="M45.9,39.4c-0.3-0.3-0.5-0.6-0.5-1h0.4c0,0.3,0.1,0.6,0.4,0.8c0.3,0.2,0.6,0.3,0.9,0.3c0.4,0,0.7-0.1,1-0.3
			c0.2-0.2,0.4-0.5,0.4-0.8c0-0.2-0.1-0.5-0.4-0.6c-0.3-0.2-0.6-0.3-1.1-0.3c-0.5,0-0.8-0.2-1.1-0.4c-0.3-0.2-0.4-0.5-0.4-0.8
			c0-0.4,0.1-0.7,0.4-0.9c0.3-0.2,0.7-0.3,1.2-0.3c0.5,0,0.9,0.1,1.2,0.3c0.3,0.2,0.4,0.5,0.4,0.9h-0.4c0-0.3-0.2-0.5-0.4-0.7
			c-0.2-0.2-0.5-0.2-0.8-0.2c-0.4,0-0.7,0.1-0.9,0.2c-0.2,0.2-0.3,0.4-0.3,0.6c0,0.2,0.1,0.5,0.4,0.6c0.3,0.2,0.6,0.3,1.1,0.3
			c0.5,0,0.8,0.2,1.1,0.4c0.3,0.2,0.4,0.5,0.4,0.9c0,0.4-0.2,0.7-0.5,1c-0.3,0.2-0.7,0.4-1.3,0.4C46.6,39.8,46.2,39.7,45.9,39.4z"/>
		<linearGradient id="SVGID_19_" gradientUnits="userSpaceOnUse" x1="125.4182" y1="0.4157" x2="-3.7158" y2="63.0794">
			<stop  offset="0" style="stop-color:#3498DB"/>
			<stop  offset="1" style="stop-color:#9B59B6"/>
		</linearGradient>
		<path class="st18" d="M50.1,39.6c-0.2-0.2-0.2-0.4-0.2-0.7v-3.4h-0.6v-0.3h0.6v-1.3h0.4v1.3h0.6v0.3h-0.6v3.4c0,0.2,0,0.3,0.1,0.5
			c0.1,0.1,0.2,0.2,0.3,0.2c0.1,0,0.2,0,0.3-0.1v0.3c-0.2,0.1-0.3,0.1-0.4,0.1C50.5,39.9,50.3,39.8,50.1,39.6z"/>
		<linearGradient id="SVGID_20_" gradientUnits="userSpaceOnUse" x1="126.2253" y1="2.079" x2="-2.9087" y2="64.7426">
			<stop  offset="0" style="stop-color:#3498DB"/>
			<stop  offset="1" style="stop-color:#9B59B6"/>
		</linearGradient>
		<path class="st19" d="M52.2,39.4c-0.3-0.3-0.4-0.6-0.4-1v-3.3h0.4v3.3c0,0.3,0.1,0.5,0.3,0.8c0.2,0.2,0.5,0.3,0.8,0.3
			c0.4,0,0.7-0.1,1-0.4c0.3-0.3,0.5-0.6,0.5-1.1v-2.8h0.4v4.6h-0.4v-0.8c-0.1,0.3-0.3,0.5-0.6,0.7c-0.3,0.2-0.6,0.2-0.9,0.2
			C52.8,39.8,52.4,39.7,52.2,39.4z"/>
		<linearGradient id="SVGID_21_" gradientUnits="userSpaceOnUse" x1="127.0951" y1="3.8713" x2="-2.0389" y2="66.535">
			<stop  offset="0" style="stop-color:#3498DB"/>
			<stop  offset="1" style="stop-color:#9B59B6"/>
		</linearGradient>
		<path class="st20" d="M56.7,39.1c-0.4-0.5-0.6-1-0.6-1.7c0-0.7,0.2-1.2,0.6-1.7c0.4-0.5,0.8-0.7,1.4-0.7c0.3,0,0.6,0.1,0.9,0.3
			c0.3,0.2,0.5,0.5,0.6,0.8v-2.8H60v6.4h-0.4v-0.9c-0.1,0.3-0.3,0.6-0.6,0.8c-0.3,0.2-0.6,0.3-0.9,0.3
			C57.6,39.8,57.1,39.6,56.7,39.1z M59.2,38.9c0.3-0.4,0.4-0.9,0.4-1.5c0-0.6-0.1-1.1-0.4-1.5c-0.3-0.4-0.7-0.6-1.1-0.6
			S57.3,35.5,57,36c-0.3,0.4-0.4,0.9-0.4,1.5c0,0.6,0.1,1.1,0.4,1.5c0.3,0.4,0.7,0.6,1.1,0.6S58.9,39.3,59.2,38.9z"/>
		<linearGradient id="SVGID_22_" gradientUnits="userSpaceOnUse" x1="127.4264" y1="4.554" x2="-1.7076" y2="67.2177">
			<stop  offset="0" style="stop-color:#3498DB"/>
			<stop  offset="1" style="stop-color:#9B59B6"/>
		</linearGradient>
		<path class="st21" d="M61.4,33.3h0.4V34h-0.4V33.3z M61.4,39.7v-4.6h0.4v4.6H61.4z"/>
		<linearGradient id="SVGID_23_" gradientUnits="userSpaceOnUse" x1="128.3952" y1="6.5505" x2="-0.7388" y2="69.2141">
			<stop  offset="0" style="stop-color:#3498DB"/>
			<stop  offset="1" style="stop-color:#9B59B6"/>
		</linearGradient>
		<path class="st22" d="M63.4,39.1c-0.4-0.4-0.6-1-0.6-1.7c0-0.7,0.2-1.3,0.6-1.8c0.4-0.4,0.9-0.7,1.5-0.7c0.6,0,1.1,0.2,1.5,0.7
			c0.4,0.5,0.6,1,0.6,1.8c0,0.7-0.2,1.3-0.6,1.7c-0.4,0.4-0.9,0.6-1.5,0.6C64.3,39.8,63.8,39.6,63.4,39.1z M66.1,38.9
			c0.3-0.4,0.4-0.9,0.4-1.5c0-0.6-0.1-1.1-0.4-1.5c-0.3-0.4-0.7-0.6-1.2-0.6c-0.5,0-0.9,0.2-1.2,0.6c-0.3,0.4-0.5,0.9-0.5,1.5
			c0,0.6,0.2,1.1,0.5,1.5c0.3,0.4,0.7,0.5,1.2,0.5C65.4,39.4,65.8,39.2,66.1,38.9z"/>
	</g>
</g>
</svg>
