<?xml version="1.0" encoding="utf-8"?>
<!-- Generator: Adobe Illustrator 21.1.0, SVG Export Plug-In . SVG Version: 6.00 Build 0)  -->
<svg version="1.1" id="Layer_1" xmlns="http://www.w3.org/2000/svg" xmlns:xlink="http://www.w3.org/1999/xlink" x="0px" y="0px"
	 viewBox="0 0 323 323" enable-background="new 0 0 323 323" xml:space="preserve">
<g>
	<g>
		<polygon fill="#FFFFFF" points="152.8,91.7 163.1,91.7 128.9,3.9 118.1,3.9 83.8,91.7 94.2,91.7 101.9,71.6 102.1,71.6 
			123.3,16.2 144.8,71.6 144.8,71.6 		"/>
	</g>
	<path fill="#FFFFFF" d="M162.3,3.9h10.5l22.9,43l22.7-43h10.5l-28.6,52.4v35.4h-9.5V56.3L162.3,3.9z"/>
	<path fill="#FFFFFF" d="M13.9,190.1H4.3v-87.8h9.6V153l41-50.7H66l-30.3,37.8l32.3,50H56.5l-27.4-42l-15.2,18.8V190.1z"/>
	<path fill="#FFFFFF" d="M174,177.8l6.8-6.8c3.9,7.7,9.5,11.5,16.7,11.5c5.5,0,9.7-1.7,12.6-5.1c2.9-3.4,4.3-8.3,4.3-14.7v-60.5h9.5
		v60.5c0,8.9-2.3,15.8-7,21s-11.2,7.7-19.7,7.7c-5,0-9.5-1.2-13.6-3.7C179.5,185.3,176.3,182,174,177.8z"/>
	<g>
		<polygon fill="#FFFFFF" points="306.9,190.1 317.2,190.1 283,102.3 272.2,102.3 237.9,190.1 248.3,190.1 256,170 256.2,170 
			277.4,114.6 298.9,170 298.9,170 		"/>
	</g>
	<g>
		<path fill="#E74C3C" d="M173.2,138.2c-1.2-3.9-6.7-9.1-9.9-13.3s-13.1-8.6-13.6-9.1c-0.5-0.5-6.4-1.7-10.9-2.5
			c-4.4-0.7-10.4-3.5-10.9-4.2c-0.5-0.7-10.4-1.7-10.4-1.7s-8.9,0.5-9.4,0.7c-0.5,0.2-13.1,4.7-13.1,4.7s-8.4,3.2-11.8,7.4
			c-3.5,4.2-4.4,13.1-4.4,13.1l-0.2,9.1l0.2,7.4c-0.5,4.4,5.2,16,8.1,22.5c3,6.4,7.9,9.4,7.9,9.4s5.2,0.2,6.9,0s6.4,1.2,6.4,1.2
			c3,2.5,0,4.9,0,4.9l-1.7,0.2l-4.9-2.5c-6.7-2.5-8.9,1.2-8.9,1.2l-4.7,6.2l-4.2,6.2c0,0-4.7,3.2-6.2,5.4c-1.5,2.2-8.1,4.9-8.6,4.9
			c-0.5,0-2.5,1.5-2.5,1.5c-1.6,1.6-0.4,4.3-0.4,4.3c1.5,4.4,5.7,1.7,5.7,1.7l7.9-6.2c0,0,10.9-9.6,14.3-12.8
			c3.5-3.2,5.4,0.2,5.4,0.2s2.7,4.2,3.9,5.9c1.2,1.7,1,5.9,1,5.9l0.2,7.9c0,0,0.7,4.2,1.2,6.7c0.5,2.5,0,6.7,0,9.6
			c0,3-0.7,6.2-0.7,6.2s-2.2,4.2-3.2,5.7c-1,1.5-0.5,5.2-0.5,6.9s1.5,8.6,1.5,8.6v8.1v24.7c0,0,0.2,5.4,0.2,9.6s2.5,4.4,2.5,4.4
			l6.7,4.7c0,0,4.7,4.9,8.4,4.7c3.7-0.2,2.2-3.9,2.2-3.9c-3.7-1.5-11.4-8.1-11.4-8.1s-2.7-2.2-3.5-3.9c-0.7-1.7-0.2-4.7-0.2-4.7
			l0.2-6.7l0.2-13.6l0.7-8.9l0.2-13.6c1.7-2.5,4.2-0.5,4.2-0.5v3v11.8l0.2,13.3l-0.5,7.6c0,0-0.5,3.5-2,6.9
			c-1.5,3.5,0.7,5.2,0.7,5.2l4.9,3.7c0,0.5,4.4,2.7,4.4,2.7s4.2,0.7,5.2,0c1-0.7,0.2-3.7,0.2-3.7l-1.5-1.5c0,0-3.9-2.2-5.2-2.7
			c-1.2-0.5-2.5-2.7-2.5-2.7l0.5-9.9l0.7-16.3l1.2-8.6c0,0,0.7-5.9,1-6.4c0.2-0.5,0.2-7.9,0.2-7.9c0.5-2-1-7.9-0.7-9.1
			c0.2-1.2-3.2-10.9-3.2-14.1s0.2-6.2,0.2-6.2l3-9.9c-0.2-2,3.7-8.4,3.7-8.4c3.2-3,4.4,0,5.9,0.2c1.5,0.2,3.5,4.4,3.5,4.4
			c0,1.2,6.2,12.3,6.2,12.3l5.2,6.2l2.5,4.4c0,0,2.2,5.2,7.2,2.5c4.9-2.7,2-6.9,1.7-6.9s-4.9-1.5-4.9-1.5c-2.1-1.4-6-5.7-8.8-10.7
			c-3.2-5.8-5.2-12.3-5.3-13.2c-0.2-1.7-3.2-4.2-4.4-5.7c-1.2-1.5-5.2-2.5-5.2-2.5h-9.1c-4.7-3.5,0.5-6.2,0.5-6.2l10.9,0.5
			c0,0,16.9-0.6,18.9-0.6c5.7,0,8.7-3,9.9-3.7c2.5-1.6,4.2-3.2,5.6-4.6c1.7-1.7,4.4-4.4,6.7-8.6c2.7-5,3.4-9.9,3.6-13.2
			C174.7,154.3,174.5,142.2,173.2,138.2z M116.6,168.5c-2.2-0.2-3,0.2-6.2,0c-1.9-0.1-3.5-0.2-4.9-0.7c-3-1-4.6-3.3-6.4-5.9
			c-2.9-4.1-6.5-9.3-4.9-14.1c0.7-2.3,2.1-2.8,2.5-5.7c0.4-2.6-0.5-3.6,0-5.7c0.6-2.4,2.4-3.8,4.2-5.2c4.9-3.8,10.5-4.5,12.8-4.7
			c4.9-0.4,8.4,0.6,13.1,2c3.1,0.9,9.4,3,16.5,7.6c5.9,3.9,9.3,6.1,11.1,10.6c0.5,1.2,1.9,5.2,0.7,9.9c-1.5,6.2-6.4,9.4-8.6,10.9
			c-4.9,3.2-9.7,3.7-12.3,3.9c-2.3,0.2-6.4,0.6-11.1-1C120.5,169.6,119.4,168.7,116.6,168.5z M167.4,158.3
			c-2.4,8.7-10.3,16.2-10.6,16.5c-2.7,3-14.6,4.4-14.6,4.4s-19.7,1.5-22.9,0c-3.2-1.5,0.2-4.2,0.2-4.2s6.7-0.7,13.3,0.5
			c6.7,1.2,18.3-6.4,18.3-6.4c6.9-3,8.6-9.9,9.1-12.1s-0.2-10.9-0.2-10.9s-1.5-6.4-10.9-13.6c-9.4-7.2-13.8-7.9-13.8-7.9
			s-13.1-2.5-18.8-3c-5.7-0.5-13.1,2-18,4.7s-8.1,13.3-8.9,17.5c-0.7,4.2,1,13.1,1,13.1s3.7,7.2,5.4,9.4s4.2,4.4,4.2,4.4
			s3.7,2.5,5.4,2.7c1.7,0.2,3,0.7,3,0.7s0.7,1.2-0.7,1.7c-1.5,0.5-6.2-1-6.2-1l-4.4-2c0,0-3.9-3.7-6.4-6.4
			c-2.5-2.7-5.2-17.3-5.2-17.3v-15.3c-0.7-6.9,4.2-9.4,5.4-10.6s12.1-4.9,12.1-4.9s6.9-2.2,10.4-3c3.5-0.7,13.6,1.7,13.6,1.7
			s10.6,2.5,13.1,2.2c2.5-0.2,17.5,10.4,17.5,10.4l8.4,9.6C166.8,139.8,169.9,149.7,167.4,158.3z"/>
		<path fill="#E74C3C" d="M96.4,151.4c-0.8-1.1-0.4-2.7,0.2-3.7c0.7-1.1,1.9-1.4,2.2-1.5c0.4-0.1,1.7-0.5,3,0.2
			c0.2,0.1,1.3,0.8,1.5,2c0.1,0.9-0.4,1.7-0.7,2.2c-0.2,0.3-0.7,1-1.7,1.5c-0.3,0.1-1.4,0.6-2.7,0.2
			C97.6,152.3,96.9,152.1,96.4,151.4z"/>
		<path fill="#E74C3C" d="M98.6,140.1c0.3-1.6,1.6-3.7,3.9-3.9c1.7-0.2,3.3,0.7,4.2,2c0.8,1.2,0.8,2.4,0.7,2.7
			c0,0.5-0.2,2.3-1.7,3.5c-1.8,1.3-3.9,0.6-4.2,0.5c-1.3-0.5-2.6-1.6-3-3.2C98.6,141.4,98.5,140.8,98.6,140.1z"/>
		<path fill="#E74C3C" d="M110.4,131.2c2-1.5,5.2-0.8,6.4,1.2c1.2,2-0.1,4.4-0.2,4.7c-0.3,0.5-1.2,2.2-3,2.5c-2,0.3-3.9-1.6-4.4-3.5
			C108.8,134.6,108.9,132.4,110.4,131.2z"/>
		<path fill="#E74C3C" d="M124.8,132.7c2.1-0.6,4.5,0.5,5.4,2.5c0.7,1.5,0.6,3.3-0.5,4.7c-1.3,1.7-3.3,1.7-3.7,1.7
			c-0.5,0-2.5-0.1-3.7-1.7c-1.3-1.8-0.6-3.8-0.5-4.2C121.9,135.4,122.7,133.3,124.8,132.7z"/>
		<path fill="#E74C3C" d="M134.9,137.6c1.7-1.3,4.3-1.2,5.9,0.2c1.4,1.2,2.1,3.4,1.2,5.2c-1.1,2.2-3.9,2.2-4.4,2.2
			c-0.4,0-3.4-0.1-4.4-2.5C132.4,140.9,133.4,138.7,134.9,137.6z"/>
		<path fill="#E74C3C" d="M145.5,148c0.2-0.1,2.5-1.7,4.4-0.5c1.7,1,1.7,3,1.7,3.2c0,1.7-1.1,2.8-1.7,3.5c-0.7,0.7-2.1,2.1-3.7,1.7
			c-1.8-0.4-2.8-2.6-2.7-4.4C143.6,149.3,145.3,148.1,145.5,148z"/>
		<path fill="#E74C3C" d="M125,156.9c1.2-0.9,3-0.2,3.9,0.5c1,0.8,2.3,2.6,1.5,4.2c-0.7,1.4-2.5,1.9-3.9,1.5
			c-1.6-0.5-2.1-2.2-2.2-2.5C124,159.6,123.8,157.8,125,156.9z"/>
		<path fill="#E74C3C" d="M139.3,157.1c1.9-0.5,3.9,1,4.4,2.7c0.4,1.3,0.2,3.2-1.2,4.2c-1.8,1.2-3.9,0.1-3.9,0c-1.2-0.7-2.1-2-2-3.7
			C136.8,158.8,137.9,157.5,139.3,157.1z"/>
		<path fill="#E74C3C" d="M118.3,146.3c-1.8-0.8-3.6-0.8-4.2-0.7c-1.9,0.1-3.3,0.7-3.9,1c-2.7,1.2-7.8,4.9-7.4,10.1
			c0.3,3.3,2.7,5.4,3,5.7c2.4,2,5.1,2,6.7,2c1.2,0,4.1-0.1,6.9-2.2c0.7-0.5,3.5-2.7,3.9-6.4C123.8,151.7,121.5,147.7,118.3,146.3z
			 M119.3,158.3c-1,1.6-2.8,2-3.9,2.2c-0.7,0.1-2.7,0.5-4.9-0.5c-0.7-0.3-3.3-1.6-3.7-4.2c-0.4-2.3,1.1-4,1.5-4.4
			c0.2-0.3,1.9-2.2,4.7-2.2c2.4,0,3.9,1.3,4.7,2c0.7,0.6,1.8,1.5,2.2,3.2C119.9,154.8,120.4,156.7,119.3,158.3z"/>
		<path fill="#E74C3C" d="M110.4,152.2c1.7-1.4,4-0.1,4.2,0c0.4,0.2,1.8,1,2,2.5c0.2,1.5-0.9,2.9-2.2,3.5c-1.5,0.6-3.4,0.2-4.4-1.2
			C108.9,155.4,109.1,153.2,110.4,152.2z"/>
		<path fill="#E74C3C" d="M80.6,183c1.4-1.8,5.1-2.4,7.2-0.2c1.9,2,1.4,5.2-0.2,6.9c-1.2,1.3-3.5,2.1-5.2,1.2
			c-1.7-0.9-2-2.9-2.2-3.9C79.9,186,79.6,184.3,80.6,183z"/>
		<path fill="#E74C3C" d="M76.2,171.7c1.5-1.3,3.8-0.9,5.2-0.2c2.2,1.1,2.8,3.4,3,3.9c0.1,0.6,0.4,1.9-0.2,3.2
			c-0.8,1.4-2.3,2.2-3.7,2.2c-2.4,0.1-3.9-1.8-4.2-2.2C74.7,176.7,74.2,173.3,76.2,171.7z"/>
		<path fill="#E74C3C" d="M67.8,160.6c2.5-1.2,5,0.7,5.4,1c0.5,0.4,2.1,1.6,2.2,3.7c0.1,2.2-1.4,4.4-3.7,4.9
			c-2.4,0.6-4.4-0.9-5.4-2.2c-0.3-0.4-1.4-1.9-1-3.9C65.3,163.7,65.8,161.5,67.8,160.6z"/>
		<path fill="#E74C3C" d="M62.8,143c1.4-1.1,3.1-1,3.5-1c2.6,0.3,3.9,2.6,3.9,2.7c0.8,1.6,0.9,3.9-0.5,5.4c-1.4,1.6-3.6,1.5-3.9,1.5
			c-0.3,0-2.9-0.2-4.2-2.5C60.4,147.1,61.1,144.4,62.8,143z"/>
		<path fill="#E74C3C" d="M65.3,129c1.5-1.4,4.1-0.6,4.4-0.5c0.4,0.1,2.5,0.8,3.5,3c0.6,1.4,0.8,3.7-0.5,4.9c-1,1-2.5,0.9-3.9,0.7
			c-1.4-0.1-2.9-0.3-3.9-1.5c-1.3-1.6-0.7-3.9-0.5-4.7C64.5,130.2,64.7,129.5,65.3,129z"/>
		<path fill="#E74C3C" d="M72.2,114.2c1-1.3,3.7-1.4,5.7-0.2c0.2,0.1,2.8,1.6,2.7,4.4c0,2.3-1.8,3.7-2.2,3.9c-1.4,1-3.7,1.7-5.4,0.5
			c-1.4-1-1.7-2.7-1.7-3c-0.1-0.5,0-0.7,0.5-3.5C72,114.5,72,114.4,72.2,114.2z"/>
		<path fill="#E74C3C" d="M82.3,103.8c1.6-2.9,7.3-2.9,8.9-0.2c1,1.6,0.4,4.2-1.2,5.7c-1.7,1.5-4.5,1.8-6.4,0.2
			C81.8,108,81.4,105.5,82.3,103.8z"/>
		<path fill="#E74C3C" d="M96.4,99.9c0.1-0.4,1.2-3.5,3.9-3.7c2.2-0.2,4.3,1.5,4.7,3.7c0.5,2.8-2.3,4.6-2.5,4.7
			c-1.6,1-4.2,1.5-5.7,0C95.3,103,96.3,100.3,96.4,99.9z"/>
		<path fill="#E74C3C" d="M114.6,96.7c1.1-1.6,3.6-2,5.4-1.2c1.1,0.5,1.7,1.3,2,1.7c0.2,0.3,1.7,2.5,0.7,4.4c-0.7,1.4-2.3,1.9-2.7,2
			c-1.6,0.4-3.5,0.1-4.7-1.2c-1-1-1.2-2.3-1.2-2.7C114.1,99.1,113.9,97.8,114.6,96.7z"/>
		<path fill="#E74C3C" d="M127.2,95.9c1.7-0.9,3.6,0,3.9,0.2c0.3,0.2,2.3,1.3,2.5,3.5c0.1,2-1.4,3.2-1.7,3.5
			c-0.2,0.1-2.1,1.6-4.2,0.7c-1.9-0.8-2.7-3-2.5-4.7C125.3,98.8,125.5,96.8,127.2,95.9z"/>
		<path fill="#E74C3C" d="M136.9,100.1c1-1.5,2.9-1.7,3.5-1.7c0.8-0.1,2.2-0.2,3.2,0.7c1,1,0.8,2.4,0.7,3.2
			c-0.1,0.5-0.2,2.3-1.7,3.5c-1.1,0.9-2.4,1-3,1c-0.5,0-2.7,0.1-3.5-1.2c-0.3-0.5-0.2-1.1,0-2.5
			C136.3,101.5,136.4,100.7,136.9,100.1z"/>
		<path fill="#E74C3C" d="M149.9,102.6c0.4-0.6,1.7-2.4,3.9-2.7c0.3,0,2.7-0.4,3.9,1.2c1.1,1.4,0.7,3.1,0.5,3.9
			c-0.1,0.6-0.5,2.1-2,3.2c-1.6,1.2-3.3,1-3.9,1c-0.9-0.1-2.6-0.2-3.5-1.5C147.7,105.8,149.7,102.9,149.9,102.6z"/>
		<path fill="#E74C3C" d="M166.7,115.2c-1.3-2-0.2-4.2,0-4.7c0.2-0.4,1.2-2.5,3.5-3c0.3-0.1,2.4-0.5,3.9,1c1.3,1.2,1.2,2.9,1.2,3.5
			c-0.1,2.2-1.6,3.6-2,3.9c-0.4,0.4-1.3,1.1-2.7,1.2C169.2,117.2,167.6,116.5,166.7,115.2z"/>
		<path fill="#E74C3C" d="M180,122.3c1.7-1,3.9-0.2,5.2,1c1.7,1.7,1.5,4,1.5,4.2c-0.1,0.5-0.3,1.9-1.5,3c-0.3,0.3-1.3,1.2-2.7,1.2
			c-2,0.1-3.2-1.4-3.5-1.7c-1.1-1.3-1-2.8-1-3.5C178.1,125.8,178.2,123.4,180,122.3z"/>
		<path fill="#E74C3C" d="M183.7,146.7c1.9-1.4,4.1-0.8,4.4-0.7c0.2,0.1,3.3,1,3.7,3.7c0.4,2.6-2,4.3-2.2,4.4
			c-1.5,1.1-3.6,1.2-5.2,0.5c-0.4-0.2-1.9-0.8-2.5-2.5C181.3,150.2,182.1,148,183.7,146.7z"/>
		<path fill="#E74C3C" d="M139.8,188.4c1.7-1.7,4.1-1.3,4.2-1.2c0.3,0.1,2.3,0.5,3.2,2.5c0.9,1.9,0.1,3.7,0,3.9
			c-0.1,0.2-1.2,2.4-3.7,2.7c-1.8,0.2-3.5-0.7-4.4-2.2C138,192.3,138.4,189.9,139.8,188.4z"/>
		<path fill="#E74C3C" d="M152.2,190.9c1.8-0.9,3.6-0.2,3.9,0c0.5,0.2,2.1,0.9,2.5,2.5c0.4,1.4-0.4,2.6-1,3.5
			c-0.5,0.8-2.3,3.5-4.4,3.2c-2.2-0.3-3.8-3.6-3.2-6.2C150,193.5,150.5,191.8,152.2,190.9z"/>
		<path fill="#E74C3C" d="M163,184.7c1.3-1.1,3.6-1.8,5.4-0.7c2.2,1.3,3,4.8,1.2,6.9c-1.5,1.7-4.1,1.8-5.9,0.7
			c-1.5-0.9-2.6-2.9-2.2-4.7C161.8,185.7,162.7,185,163,184.7z"/>
	</g>
	<g>
		<path fill="#FFFFFF" d="M39.2,91.6H4.9V4.4h32c9.5,0,16.8,2,22.2,5.9c5.3,3.9,8,9.7,8,17.2c0,3.8-1,7.4-3.1,10.9
			c-2.1,3.4-4.8,6-8.2,7.8c4.1,1.9,7.4,4.7,9.8,8.5c2.4,3.7,3.6,7.8,3.6,12.2c0,7.6-2.7,13.7-8.2,18.2
			C55.4,89.4,48.1,91.6,39.2,91.6z M38.7,13.3H14.4v29.4h24.4c5.6,0,10.2-1.3,13.6-3.9c3.4-2.6,5.1-6.3,5.1-11.1
			c0-4.7-1.7-8.3-5.1-10.8C49,14.5,44.4,13.3,38.7,13.3z M14.4,51.6v31h25.9c5.9,0,10.6-1.4,14.1-4.2c3.5-2.8,5.2-6.7,5.2-11.9
			c0-4.8-1.7-8.5-5.2-11.1c-3.4-2.6-8-3.9-13.6-3.9H14.4z"/>
	</g>
</g>
<g>
</g>
<g>
</g>
<g>
</g>
<g>
</g>
<g>
</g>
<g>
</g>
<g>
</g>
<g>
</g>
<g>
</g>
<g>
</g>
<g>
</g>
<g>
</g>
<g>
</g>
<g>
</g>
<g>
</g>
</svg>
