<?xml version="1.0" encoding="UTF-8"?>
<svg width="971px" height="711px" viewBox="0 0 971 711" version="1.1" xmlns="http://www.w3.org/2000/svg" xmlns:xlink="http://www.w3.org/1999/xlink">
    <!-- Generator: Sketch 51.2 (57519) - http://www.bohemiancoding.com/sketch -->
    <title>Untitled 3</title>
    <desc>Created with Sketch.</desc>
    <defs>
        <polygon id="path-1" points="0.632253561 0 89.572 0 89.572 277 0.632253561 277"></polygon>
    </defs>
    <g id="Page-1" stroke="none" stroke-width="1" fill="none" fill-rule="evenodd">
        <g id="Group-66">
            <path d="M829.009,464.707 C826.249,463.837 823.476,462.932 820.758,461.858 C819.399,461.324 818.034,460.784 816.706,460.162 C815.377,459.545 814.001,458.991 812.692,458.309 C807.375,455.715 802.229,452.567 797.446,448.704 C796.285,447.696 795.259,446.562 794.336,445.323 C793.862,444.717 793.367,444.129 792.867,443.545 C792.379,442.951 791.922,442.324 791.449,441.715 C789.563,439.27 787.874,436.642 786.382,433.896 C783.367,428.428 781.346,422.305 780.343,416.19 C779.841,413.145 779.571,410.185 779.295,407.352 C779.024,404.516 778.737,401.79 778.34,399.109 C777.515,393.772 776.219,388.561 774.393,383.415 C773.493,380.877 772.488,378.196 771.441,375.685 C770.397,373.155 769.262,370.705 768.014,368.319 C765.524,363.548 762.555,359.061 759.157,354.896 C752.332,346.568 743.885,339.853 734.124,335.201 C732.896,334.607 731.666,334.031 730.378,333.456 C729.118,332.914 727.911,332.358 726.677,331.902 C724.231,330.95 721.755,330.179 719.498,329.806 C718.39,329.636 717.338,329.588 716.588,329.669 C716.241,329.72 715.955,329.787 715.862,329.831 C715.805,329.858 715.825,329.841 715.748,329.893 C715.646,329.987 715.538,330.07 715.418,330.143 C714.558,330.842 713.691,332.609 713.324,334.799 C713.132,335.887 713.025,337.044 713.012,338.23 L713.009,338.7 L713.037,339.088 L713.08,339.861 C713.09,340.378 713.247,340.897 713.307,341.418 C713.726,343.5 714.645,345.614 715.919,347.653 C717.192,349.694 718.803,351.656 720.599,353.513 C721.509,354.432 722.421,355.369 723.446,356.205 C723.945,356.634 724.484,357.021 725.006,357.436 C725.52,357.855 725.995,358.321 726.478,358.794 C730.191,362.744 734.491,366.348 738.955,369.822 C741.187,371.566 743.489,373.247 745.84,374.881 C748.173,376.552 750.576,378.126 753.009,379.707 C750.176,379.073 747.388,378.262 744.594,377.418 C741.82,376.53 739.063,375.556 736.321,374.496 C730.844,372.353 725.486,369.789 720.257,366.623 C718.945,365.834 717.828,364.783 716.739,363.693 C715.622,362.642 714.487,361.585 713.405,360.458 C711.235,358.211 709.184,355.747 707.43,352.939 C705.685,350.141 704.231,346.956 703.512,343.433 C703.376,342.54 703.165,341.667 703.12,340.755 L703.042,339.39 L703.009,338.708 L703.013,338.107 C703.032,336.438 703.178,334.741 703.484,333.018 C703.797,331.294 704.278,329.522 705.099,327.729 C705.916,325.95 707.117,324.114 708.849,322.603 C709.298,322.243 709.758,321.893 710.224,321.557 C710.739,321.209 711.394,320.857 711.996,320.608 C713.222,320.099 714.346,319.881 715.412,319.738 C717.506,319.513 719.325,319.672 721.038,319.925 C724.42,320.486 727.413,321.47 730.288,322.577 C731.732,323.114 733.123,323.75 734.485,324.339 C735.804,324.928 737.161,325.561 738.504,326.211 C743.905,328.819 749.156,332.029 753.927,335.808 C758.732,339.558 763.033,343.903 766.893,348.559 C770.719,353.243 774.082,358.332 776.876,363.687 C778.276,366.362 779.541,369.101 780.676,371.851 C781.824,374.611 782.826,377.279 783.836,380.125 C785.832,385.745 787.314,391.662 788.228,397.615 C789.138,403.569 789.37,409.403 790.21,414.562 C791.067,419.714 792.678,424.589 795.175,429.134 C797.593,433.709 800.925,437.828 804.641,441.616 C807.863,445.906 811.67,449.944 815.793,453.772 C816.797,454.767 817.895,455.651 818.95,456.603 C820.003,457.561 821.115,458.445 822.229,459.339 C824.399,461.226 826.736,462.88 829.009,464.707" id="Fill-1" fill="#FFFFFF"></path>
            <path d="M621.009,336.707 C622.361,334.852 624.012,333.169 626.016,331.74 C628.027,330.351 630.477,329.288 633.192,328.961 C635.906,328.602 638.759,329.06 641.341,329.97 C643.925,330.905 646.274,332.259 648.376,333.793 C649.433,334.565 650.214,335.575 650.989,336.551 C651.753,337.526 652.553,338.454 653.269,339.4 C654.739,341.324 655.935,342.97 657.3,344.679 C659.976,348.064 662.813,351.327 665.783,354.466 C671.727,360.74 678.219,366.512 685.143,371.697 C686.874,372.995 688.632,374.253 690.421,375.481 L693.152,377.327 L693.879,377.818 C694.144,378.002 694.371,378.151 694.781,378.46 L694.951,378.592 L695.22,378.818 L695.467,379.051 C695.572,379.156 695.642,379.227 695.767,379.37 C696.132,379.793 696.443,380.302 696.652,380.819 C697.914,384.401 695.077,387.868 692.419,387.69 C688.929,387.395 690.869,387.431 689.841,387.232 C689.531,387.096 689.126,386.839 689.143,386.844 C688.988,386.74 688.815,386.614 688.687,386.513 C688.558,386.407 688.365,386.244 688.297,386.178 C687.912,385.825 687.694,385.598 687.458,385.354 C685.719,383.522 684.305,381.859 682.807,380.119 L678.447,374.935 C672.702,367.994 667.1,360.973 661.644,353.773 C660.282,351.972 658.93,350.158 657.594,348.322 L655.602,345.551 L654.605,344.132 C654.257,343.623 653.9,343.097 653.55,342.529 C652.85,341.404 652.172,340.165 651.61,338.719 C651.064,337.27 650.577,335.599 650.614,333.545 C650.653,332.521 650.79,331.434 651.182,330.37 C651.348,329.83 651.603,329.339 651.87,328.85 L652.284,328.126 C652.433,327.902 652.597,327.703 652.759,327.494 C654.07,325.808 655.637,324.758 657.058,324.053 C658.502,323.327 659.901,322.853 661.243,322.526 C662.597,322.178 663.907,321.969 665.205,321.821 C667.811,321.547 670.296,321.49 673.012,321.796 C675.723,322.103 678.372,322.824 680.83,323.853 C682.072,324.351 683.232,324.981 684.396,325.582 C684.985,325.875 685.552,326.186 686.117,326.518 C686.668,326.861 687.166,327.275 687.649,327.707 C691.358,331.328 694.117,335.402 696.255,339.635 C697.315,341.758 698.251,343.902 699.054,346.079 C699.822,348.273 700.517,350.468 701.009,352.707 C699.589,350.91 698.164,349.166 696.631,347.534 C695.141,345.877 693.581,344.311 691.965,342.858 C688.737,339.964 685.307,337.458 681.789,335.81 C680.899,335.428 680.181,334.829 679.411,334.311 C678.631,333.815 677.8,333.425 676.972,333.079 C675.313,332.386 673.609,331.929 671.882,331.731 C670.16,331.524 668.15,331.558 666.319,331.759 C665.4,331.863 664.498,332.01 663.69,332.223 C662.862,332.416 662.139,332.69 661.591,332.967 C661.01,333.235 660.715,333.531 660.665,333.618 C660.614,333.725 660.637,333.558 660.612,333.76 C660.593,333.946 660.689,334.479 660.936,335.109 C661.181,335.746 661.562,336.483 662.045,337.253 C662.28,337.636 662.55,338.034 662.832,338.447 L663.76,339.769 L665.678,342.437 C666.971,344.213 668.288,345.98 669.619,347.741 C674.954,354.781 680.497,361.729 686.144,368.551 L690.407,373.62 C691.82,375.267 693.311,376.999 694.649,378.406 L695.002,378.759 C695.034,378.79 694.952,378.712 694.928,378.698 C694.856,378.639 694.739,378.553 694.641,378.491 C694.685,378.519 694.313,378.274 694.034,378.154 C693.037,377.965 695.005,378.037 691.551,377.728 C688.94,377.559 686.113,380.997 687.369,384.538 C687.559,385.026 687.85,385.507 688.195,385.901 C688.296,386.019 688.34,386.065 688.421,386.146 L688.592,386.307 L688.705,386.402 L688.24,386.077 L687.579,385.631 L684.76,383.725 C682.867,382.425 680.992,381.083 679.149,379.702 C671.774,374.178 664.865,368.037 658.522,361.342 C655.353,357.993 652.322,354.508 649.459,350.885 C648.035,349.104 646.6,347.14 645.357,345.516 C644.713,344.689 644.096,343.892 643.4,343.178 C642.692,342.483 641.959,341.849 641.392,341.089 C639.145,337.997 636.548,335.428 633.028,334.47 C629.502,333.482 625.029,334.547 621.009,336.707" id="Fill-3" fill="#FFFFFF"></path>
            <path d="M501.009,709.707 C500.348,707.141 499.801,704.57 499.395,702.007 C498.966,699.439 498.637,696.872 498.384,694.306 C499.379,689.445 500.28,684.567 501.376,679.728 C503.52,670.043 506.038,660.44 508.923,650.949 C511.803,641.456 515.044,632.072 518.65,622.83 C520.451,618.209 522.34,613.622 524.316,609.072 C525.979,607.091 527.661,605.133 529.452,603.241 L532.155,600.425 C533.106,599.514 534.021,598.59 535.009,597.707 C534.948,599.036 534.804,600.32 534.714,601.625 L534.332,605.473 C534.09,608.035 533.774,610.547 533.488,613.057 C531.563,617.489 529.722,621.958 527.967,626.461 C524.454,635.464 521.298,644.605 518.491,653.853 C515.681,663.1 513.228,672.455 511.139,681.892 C510.118,686.613 509.087,691.338 508.332,696.111 L506.617,699.494 C506.012,700.619 505.454,701.756 504.836,702.887 C503.64,705.155 502.371,707.428 501.009,709.707" id="Fill-5" fill="#FFFFFF"></path>
            <path d="M514.009,588.707 C512.684,588.295 511.356,587.865 510.029,587.415 C508.709,586.952 507.337,586.563 506.039,586.027 L502.161,584.341 C500.866,583.768 499.535,583.232 498.301,582.54 C497.04,581.887 495.781,581.216 494.525,580.528 C493.899,580.182 493.255,579.855 492.64,579.488 L490.828,578.338 L487.203,575.985 C486.585,575.603 486.002,575.18 485.433,574.738 C484.862,574.3 484.27,573.878 483.711,573.422 C475.532,565.341 468.47,556.082 463.167,545.834 C457.923,535.568 454.367,524.415 452.821,512.955 L452.509,510.81 C452.415,510.093 452.395,509.368 452.335,508.648 L452.036,504.319 C451.888,502.879 451.982,501.43 451.972,499.983 L452.013,495.644 C452.268,489.648 453.552,483.649 455.597,478.101 C457.634,472.532 460.339,467.38 463.263,462.493 C464.706,460.022 466.281,457.692 467.821,455.324 C469.423,453.027 470.993,450.691 472.645,448.458 C479.181,439.433 486.005,430.804 492.754,422.152 C496.117,417.853 499.51,413.468 503.018,409.161 C504.768,407.011 506.537,404.875 508.321,402.752 C509.211,401.689 510.132,400.652 510.994,399.566 C511.847,398.471 512.675,397.353 513.736,396.438 C522.176,389.087 530.81,382.023 540.009,375.707 C533.643,384.865 527.269,393.836 521.27,403.015 C520.528,404.168 519.569,405.131 518.625,406.11 C517.706,407.109 516.855,408.168 515.968,409.195 C514.222,411.273 512.491,413.364 510.778,415.469 C507.355,419.672 504.031,423.967 500.633,428.311 C493.882,436.963 487.091,445.559 480.753,454.311 C479.141,456.49 477.652,458.711 476.113,460.914 C474.664,463.146 473.163,465.363 471.841,467.635 C469.132,472.155 466.73,476.772 464.995,481.519 C463.251,486.267 462.22,491.128 462.002,496.103 L461.972,499.994 C461.982,501.291 461.885,502.59 462.027,503.883 L462.296,507.766 C462.349,508.412 462.363,509.062 462.448,509.705 L462.734,511.632 C464.123,521.92 467.318,531.967 472.053,541.247 C476.879,550.478 483.184,558.971 490.742,566.172 C491.586,567.175 492.315,568.311 493.222,569.266 L495.869,572.243 L497.193,573.758 C497.647,574.249 498.134,574.703 498.606,575.179 C499.56,576.117 500.511,577.071 501.46,578.044 C502.389,579.046 503.428,579.902 504.444,580.807 L507.525,583.518 C509.613,585.299 511.841,586.909 514.009,588.707" id="Fill-7" fill="#FFFFFF"></path>
            <path d="M568.009,488.707 C570.24,484.776 572.523,481.214 574.702,477.69 C577.828,475.38 580.741,472.798 583.609,470.178 C589.311,464.899 594.592,459.162 599.329,453.002 C604.101,446.868 608.314,440.307 611.999,433.466 C613.838,430.043 615.532,426.542 617.077,422.977 L621.447,418.415 C622.202,417.648 622.938,416.864 623.678,416.073 C624.472,415.301 625.187,414.49 626.009,413.707 C626.161,414.82 626.247,415.923 626.336,417.035 C626.394,418.136 626.431,419.239 626.453,420.346 C626.509,422.563 626.399,424.752 626.251,426.956 C624.596,430.774 622.781,434.523 620.813,438.19 C616.866,445.518 612.351,452.547 607.239,459.119 C602.164,465.718 596.506,471.866 590.399,477.52 C587.358,480.365 584.137,483.002 580.928,485.655 C579.89,486.018 578.834,486.345 577.79,486.673 C576.715,486.961 575.678,487.288 574.589,487.528 C572.452,488.067 570.246,488.449 568.009,488.707" id="Fill-9" fill="#FFFFFF"></path>
            <path d="M592.009,486.707 C592.118,488.668 592.137,490.582 592.063,492.444 C592.007,494.317 591.881,496.153 591.716,497.968 C590.035,500.874 588.522,503.869 586.917,506.816 L577.417,524.566 L567.917,542.316 L563.167,551.191 C561.726,552.323 560.285,553.455 558.749,554.535 L556.443,556.155 C555.63,556.672 554.858,557.21 554.009,557.707 C553.951,556.725 553.971,555.784 553.95,554.821 L554.019,552.004 C554.066,550.126 554.208,548.299 554.351,546.473 L559.101,537.598 L568.601,519.848 L578.101,502.098 C579.662,499.128 581.316,496.207 582.802,493.196 C584.22,492.053 585.677,490.93 587.205,489.845 C588.714,488.749 590.317,487.704 592.009,486.707" id="Fill-11" fill="#FFFFFF"></path>
            <path d="M502.009,654.707 C460.777,666.297 418.711,675.179 376.123,680.644 C354.833,683.386 333.415,685.285 311.93,686.176 C306.561,686.48 301.183,686.519 295.806,686.649 C290.43,686.809 285.046,686.777 279.658,686.745 C268.891,686.637 258.011,686.061 247.243,684.725 C241.859,684.069 236.582,683.277 231.321,682.653 C228.691,682.314 226.063,682.065 223.435,681.79 C220.801,681.564 218.171,681.326 215.53,681.15 C204.97,680.449 194.342,680.155 183.687,680.123 C173.05,680.023 162.315,680.236 151.47,679.948 C146.045,679.8 140.591,679.553 135.065,678.975 C129.531,678.358 123.959,677.605 118.11,675.405 C117.371,675.091 116.648,674.835 115.901,674.439 L114.792,673.883 L113.673,673.214 C113.302,672.999 112.93,672.756 112.557,672.467 C112.186,672.186 111.817,671.925 111.451,671.62 C110.722,670.957 110.002,670.306 109.349,669.44 C108.043,667.794 106.98,665.623 106.709,663.336 C106.384,661.036 106.787,658.861 107.378,657.07 C108.629,653.508 110.469,651.05 111.968,648.827 C112.719,647.737 113.426,646.708 113.882,645.894 C114.103,645.5 114.257,645.151 114.301,645.017 C114.36,644.865 114.247,645.059 114.352,645.606 C114.456,646.149 114.809,646.625 115.087,646.823 C115.336,647.018 115.325,646.962 115.141,646.907 C114.706,646.781 113.72,646.681 112.669,646.719 C110.513,646.784 108.029,647.186 105.558,647.681 C100.579,648.696 95.472,650.092 90.363,651.537 C85.246,652.99 80.097,654.51 74.868,655.94 C69.632,657.363 64.342,658.735 58.773,659.713 C55.979,660.19 53.128,660.588 50.028,660.647 C48.473,660.669 46.855,660.614 45.083,660.311 C43.33,659.987 41.328,659.486 39.259,657.98 C38.242,657.254 37.281,656.228 36.575,655.024 C35.85,653.835 35.394,652.342 35.305,651.02 C35.199,649.693 35.348,648.5 35.574,647.507 C35.805,646.526 36.095,645.633 36.402,644.873 C37.015,643.308 37.665,642.044 38.262,640.825 C38.863,639.618 39.421,638.495 39.898,637.411 C40.859,635.247 41.462,633.251 41.563,631.424 C41.671,629.611 41.306,627.874 40.456,626.201 C38.802,622.847 35.101,619.892 30.887,617.563 C26.638,615.21 21.855,613.372 16.911,611.666 C14.428,610.805 11.905,609.993 9.26,609.056 C7.923,608.569 6.592,608.094 5.028,607.343 C4.23,606.928 3.408,606.577 2.13,605.46 C1.789,605.132 1.442,604.796 1.025,604.172 C0.648,603.613 0.188,602.705 0.046,601.567 C-0.105,600.438 0.127,599.172 0.632,598.21 C1.124,597.226 1.822,596.554 2.307,596.175 C3.369,595.365 4.102,595.129 4.711,594.904 C5.303,594.71 5.824,594.581 6.28,594.491 C7.206,594.305 7.996,594.21 8.762,594.13 C10.282,593.978 11.673,593.91 13.049,593.846 C15.786,593.725 18.414,593.644 21.001,593.489 C26.142,593.181 31.208,592.626 35.519,591.195 C37.655,590.484 39.545,589.527 40.885,588.376 C41.543,587.794 42.093,587.188 42.492,586.517 C42.9,585.869 43.203,585.104 43.581,583.934 C43.952,582.765 44.367,581.369 44.847,579.998 C45.326,578.619 45.864,577.251 46.435,575.918 C47.016,574.592 47.619,573.284 48.263,572.019 L50.147,568.359 C50.799,567.129 51.476,565.874 52.297,564.55 C53.118,563.24 54.107,561.79 55.63,560.364 C56.391,559.656 57.327,558.987 58.323,558.463 C59.338,557.929 60.269,557.608 61.303,557.334 C63.347,556.818 65.401,556.819 67.202,557.076 C70.801,557.611 73.612,558.944 75.88,559.771 C76.433,559.977 76.945,560.151 77.346,560.26 C77.739,560.374 78.028,560.393 77.954,560.385 C77.908,560.36 77.292,560.46 76.88,560.8 C76.687,560.952 76.48,561.165 76.315,561.431 C76.158,561.714 76.07,561.921 76.051,562.08 C76.004,562.327 76.053,562.139 75.996,561.779 C75.949,561.416 75.841,560.894 75.701,560.314 C75.423,559.143 75.032,557.748 74.734,556.169 C74.445,554.585 74.216,552.791 74.41,550.776 C74.507,549.775 74.709,548.735 75.046,547.71 C75.228,547.2 75.416,546.693 75.667,546.204 C75.895,545.705 76.162,545.228 76.471,544.769 C77.668,542.908 79.325,541.459 80.936,540.491 C82.56,539.502 84.162,538.867 85.699,538.37 C88.767,537.418 91.645,536.959 94.438,536.593 C100.018,535.89 105.329,535.571 110.556,535.021 C113.167,534.755 115.748,534.448 118.299,534.07 C119.578,533.879 120.84,533.67 122.065,533.444 C123.261,533.202 124.406,532.971 125.47,532.635 C127.586,532.021 129.969,530.961 132.424,529.931 L139.859,526.785 C144.845,524.708 149.856,522.719 154.87,520.76 C164.901,516.863 174.979,513.116 185.063,509.464 C195.155,505.805 205.121,502.23 214.816,498.096 C219.67,496.038 224.497,493.852 229.279,491.592 C234.051,489.335 238.774,486.991 243.197,484.456 C245.395,483.188 247.498,481.846 249.236,480.452 C250.103,479.748 250.831,479.065 251.519,478.278 C252.235,477.485 252.926,476.441 253.637,475.529 C256.343,471.659 258.17,467.314 259.759,462.344 C260.578,459.855 261.38,457.211 262.486,454.438 C263.575,451.685 265.078,448.745 267.241,446.182 C269.395,443.624 271.998,441.497 274.851,439.93 C277.716,438.348 280.837,437.32 283.922,436.759 C287.013,436.194 290.059,436.103 292.975,436.19 C295.877,436.266 298.703,436.636 301.145,436.75 C306.12,437.115 311.093,436.78 316.019,436.016 C317.247,435.779 318.485,435.631 319.705,435.329 L323.37,434.448 C325.796,433.73 328.227,433.032 330.627,432.126 C335.438,430.38 340.199,428.33 344.938,426.035 C354.424,421.496 363.88,416.367 373.681,411.71 C374.909,411.132 376.122,410.527 377.362,409.971 L381.094,408.33 L388.561,405.05 L390.427,404.229 C391.054,403.967 391.694,403.734 392.326,403.485 L396.132,402.015 L403.744,399.077 C414.022,395.53 424.39,392.184 434.901,389.573 C440.137,388.145 445.399,387.003 450.649,385.735 L466.352,382.247 C471.587,381.115 476.737,379.887 481.911,378.686 C487.017,377.356 492.165,376.121 497.166,374.556 C502.244,373.168 507.126,371.311 512.079,369.627 L519.327,366.672 C520.525,366.157 521.766,365.737 522.93,365.146 L526.458,363.457 C535.968,359.153 544.873,353.622 553.648,347.924 C558.009,345.015 562.173,341.928 566.063,338.636 C569.943,335.339 573.533,331.794 576.463,327.897 C579.382,324.01 581.76,319.82 582.995,315.368 C583.251,314.246 583.63,313.146 583.747,312.002 L584.017,310.302 C584.056,309.803 584.095,309.461 584.071,308.926 C584.048,306.945 583.581,304.46 583.033,302.021 C581.901,297.084 580.356,291.983 578.822,286.909 L574.052,271.622 C572.455,266.554 570.79,261.518 569.065,256.485 L566.445,248.894 C565.572,246.328 564.681,243.726 563.931,240.853 C563.55,239.428 563.249,237.886 563.027,236.311 C562.843,234.721 562.746,233.092 562.807,231.535 C562.909,228.419 563.349,225.544 563.886,222.752 C564.425,219.982 565.069,217.39 565.415,215.094 C565.592,213.948 565.664,212.895 565.674,211.898 C565.635,210.924 565.543,209.999 565.308,209.104 C564.848,207.29 563.932,205.612 562.484,203.502 C561.77,202.445 560.938,201.271 560.122,199.9 C559.307,198.536 558.526,196.957 557.978,195.253 C557.426,193.552 557.111,191.759 557.021,190.029 C556.983,189.157 556.977,188.259 557.067,187.313 C557.151,186.379 557.329,185.424 557.512,184.654 C557.905,183.062 558.018,182.594 558.032,181.748 C558.05,180.897 557.92,179.94 557.72,179.194 C557.509,178.422 557.2,177.749 556.682,176.942 C556.169,176.138 555.409,175.202 554.506,174.015 C553.611,172.838 552.602,171.359 551.841,169.688 C551.07,168.032 550.557,166.195 550.339,164.326 C550.119,162.456 550.219,160.577 550.537,158.846 C550.865,157.12 551.38,155.534 551.962,154.066 C553.135,151.126 554.567,148.66 555.866,146.314 C558.497,141.686 560.687,137.449 560.712,133.721 C560.745,131.851 560.355,130.137 559.436,128.052 C558.973,127.001 558.292,125.55 557.764,124.115 C557.229,122.677 556.793,121.254 556.411,119.861 C554.862,114.303 554.117,108.42 554.028,102.783 C553.952,97.344 553.857,92.044 553.951,86.515 C554.015,83.75 554.109,80.961 554.45,78.01 C554.642,76.521 554.862,75.012 555.294,73.384 L555.633,72.161 L556.111,70.874 C556.196,70.659 556.271,70.449 556.367,70.231 L556.709,69.558 C556.961,69.106 557.134,68.678 557.472,68.22 C558.548,66.419 560.637,64.626 562.698,63.83 C563.754,63.325 564.747,63.144 565.769,62.924 C566.283,62.81 566.731,62.817 567.217,62.768 C567.683,62.745 568.193,62.676 568.625,62.708 C572.244,62.787 575.278,63.659 578.128,64.682 C580.967,65.729 583.597,67.01 586.127,68.437 C588.654,69.871 591.068,71.444 593.417,73.251 C595.783,75.054 597.811,77.011 599.571,78.343 C600.436,79.007 601.224,79.467 601.706,79.646 C601.927,79.699 602.092,79.769 602.183,79.747 C602.238,79.776 602.284,79.726 602.336,79.749 C602.32,79.733 602.256,79.772 602.243,79.765 C602.201,79.778 602.267,79.772 602.426,79.637 C602.584,79.499 602.809,79.265 603.048,78.954 C603.289,78.644 603.543,78.254 603.804,77.804 L604.738,76.123 C606.437,73.089 608.79,70.663 611.247,68.665 C616.252,64.737 621.687,62.494 627.007,60.641 C632.351,58.81 637.689,57.454 642.982,56.23 C648.293,55.012 653.498,53.913 658.787,52.797 C664.091,51.695 669.505,50.689 674.983,49.991 C680.456,49.269 685.989,48.864 691.516,48.725 C697.042,48.613 702.567,48.771 708.082,49.207 C713.59,49.639 719.078,50.44 724.33,51.217 C729.596,51.99 734.458,52.578 738.936,51.967 C741.184,51.623 743.405,51.103 745.619,50.248 C747.888,49.434 749.797,48.476 751.574,47.203 C753.363,45.932 755.246,44.186 757.214,42.389 C759.177,40.584 761.201,38.737 763.251,36.938 C765.305,35.125 767.393,33.373 769.421,31.653 L775.581,26.461 C779.708,23.007 783.876,19.567 788.177,16.212 C792.493,12.87 796.917,9.588 801.768,6.628 C804.198,5.154 806.743,3.763 809.513,2.576 C812.275,1.397 815.319,0.413 818.746,0.091 C820.448,-0.083 822.28,-0.007 824.096,0.324 C825.007,0.474 825.914,0.748 826.796,1.043 L828.077,1.573 C828.513,1.746 828.922,1.943 829.302,2.172 C832.473,3.895 834.882,6.238 836.854,8.672 C838.822,11.123 840.374,13.72 841.7,16.364 C843.03,19.01 844.106,21.716 845,24.453 C845.905,27.188 846.655,29.953 847.227,32.741 C847.823,35.526 848.271,38.332 848.572,41.151 C849.8,52.404 849.061,63.934 845.593,74.987 C844.757,77.753 843.622,80.452 842.401,83.103 C841.142,85.749 839.677,88.233 838.219,90.583 C835.292,95.283 832.378,99.411 831.408,103.374 C830.896,105.355 830.788,107.382 831.029,109.492 C831.277,111.605 831.861,113.39 832.881,115.218 C833.881,117.041 835.442,118.981 837.11,121.101 C838.782,123.214 840.525,125.496 842.118,127.892 C843.704,130.301 845.132,132.817 846.433,135.378 C847.07,136.674 847.699,138.002 848.26,139.456 C848.84,140.886 849.293,142.442 849.661,143.932 C850.357,146.93 850.706,149.622 851.116,152.26 C851.517,154.896 851.916,157.5 852.363,160.103 C854.154,170.508 856.297,180.935 858.829,191.172 C860.099,196.294 861.522,201.473 862.773,206.816 C864.011,212.154 865.048,217.533 865.941,222.881 L866.009,223.707 C866.015,223.56 866.01,223.412 865.996,223.266 L865.968,223.048 L865.976,223.097 L866.01,223.304 L866.076,223.717 L866.208,224.538 L866.463,226.175 L866.953,229.445 L867.863,235.991 C868.438,240.36 868.954,244.74 869.383,249.147 C870.202,257.964 870.774,266.883 870.504,275.872 C870.335,284.864 869.145,293.785 868.381,302.235 C868.019,306.479 867.788,310.683 867.748,314.9 C867.757,317.024 867.749,319.093 867.832,321.267 L867.965,324.525 L867.997,325.341 C868.01,325.691 868.02,325.664 868.036,325.93 L868.166,327.469 C868.986,335.846 870.394,344.359 872.085,352.764 C873.791,361.183 875.847,369.546 878.106,377.855 C882.703,394.458 888.248,410.82 894.652,426.85 L895.009,428.706 C895.034,428.349 895.003,427.97 894.916,427.613 C894.884,427.461 894.794,427.205 894.774,427.158 L894.812,427.256 L894.964,427.646 L895.265,428.426 L895.856,429.977 L897.006,433.078 C897.754,435.15 898.492,437.226 899.198,439.314 C900.616,443.488 901.949,447.699 903.161,451.973 C904.372,456.246 905.467,460.577 906.302,465.059 C907.135,469.526 907.699,474.237 907.518,479.113 C907.394,484.014 906.086,488.888 904.906,493.002 C903.721,497.125 902.816,500.916 902.377,504.921 C901.929,508.906 901.861,513.002 901.997,517.142 C902.071,519.213 902.208,521.238 902.458,523.145 C902.712,525.038 903.143,526.977 903.609,529.167 C904.546,533.523 905.269,537.977 905.865,542.335 L907.574,555.288 C908.653,563.955 909.633,572.75 909.655,581.832 C909.627,586.376 909.333,590.989 908.569,595.602 C908.346,596.752 908.173,597.908 907.905,599.054 L907.048,602.482 L905.968,605.86 C905.604,606.984 905.115,608.066 904.692,609.17 C902.846,613.519 900.598,617.697 897.791,621.503 C895.037,625.341 891.806,628.79 888.425,631.894 C885.033,634.999 881.506,637.748 878.103,640.42 C874.672,643.119 871.077,645.849 867.255,648.34 C863.437,650.834 859.381,653.11 855.07,654.953 C850.764,656.801 846.191,658.186 841.493,658.973 C836.796,659.787 831.986,659.9 827.245,659.456 C822.506,659.013 817.821,657.993 813.38,656.414 C804.478,653.257 796.554,648.187 789.559,642.478 C787.818,641.05 786.106,639.584 784.47,638.134 C783.656,637.434 782.801,636.618 781.964,635.848 C781.116,635.074 780.282,634.288 779.491,633.459 C776.249,630.22 773.257,626.74 770.546,623.081 C765.099,615.772 760.679,607.835 756.902,599.808 C754.996,595.793 753.245,591.783 751.497,587.811 C750.622,585.814 749.752,583.787 748.907,581.673 C748.066,579.561 747.272,577.337 746.615,575.081 C745.3,570.614 744.528,565.959 743.916,561.732 C743.299,557.541 742.492,553.882 741.082,550.106 L741.276,550.547 C738.24,542.849 735.091,537.287 729.977,531.801 C725.01,526.389 719.137,521.531 713.083,516.664 C710.057,514.22 706.978,511.77 703.932,509.138 C700.876,506.534 697.906,503.554 695.216,500.359 C693.921,498.698 692.56,497.099 691.486,495.256 C690.931,494.354 690.318,493.487 689.819,492.554 L688.38,489.721 C686.592,485.907 685.229,481.906 684.263,478.038 C682.249,470.276 680.797,463.03 677.312,456.574 L676.033,454.151 C675.562,453.367 675.04,452.611 674.548,451.838 C674.033,451.077 673.584,450.276 673.019,449.545 L671.308,447.359 C670.721,446.641 670.206,445.872 669.563,445.192 L667.658,443.135 L665.754,441.072 C665.092,440.412 664.431,439.765 663.768,439.171 C662.475,437.988 660.971,436.879 659.403,435.671 C657.843,434.477 656.286,433.256 654.747,432.029 C651.668,429.574 648.655,427.067 645.661,424.544 C642.678,422.015 639.679,419.513 636.725,416.853 C633.789,414.21 630.933,411.495 628.134,408.725 C622.543,403.178 617.187,397.402 612.113,391.385 C609.573,388.377 607.082,385.344 604.729,382.09 C603.562,380.444 602.414,378.797 601.453,376.754 C601.219,376.228 600.999,375.663 600.829,375.006 C600.703,374.3 600.507,373.51 600.894,372.362 C601.002,372.091 601.159,371.811 601.322,371.557 C601.497,371.311 601.72,371.099 601.943,370.896 C602.164,370.72 602.393,370.59 602.631,370.457 C602.857,370.344 603.062,370.281 603.282,370.203 C604.106,369.972 604.789,369.959 605.399,369.983 C606.625,370.042 607.654,370.278 608.674,370.525 C609.686,370.779 610.655,371.075 611.608,371.384 C613.509,372.002 615.351,372.686 617.157,373.299 C618.047,373.596 618.97,373.902 619.746,374.065 C619.942,374.11 620.113,374.133 620.237,374.147 C620.255,374.145 620.38,374.162 620.311,374.155 C620.292,374.156 620.273,374.163 620.256,374.175 C620.177,374.187 620.047,374.23 619.961,374.292 L619.751,374.439 C619.658,374.514 619.574,374.606 619.509,374.706 C619.404,374.889 619.25,375.163 619.253,375.435 C619.249,375.688 619.252,375.787 619.315,375.96 C619.377,376.108 619.354,376.076 619.39,376.138 C619.43,376.19 619.429,376.186 619.413,376.172 L619.395,376.143 L619.246,375.987 C618.701,375.478 617.887,374.883 617.12,374.309 L614.759,372.519 C611.612,370.067 608.608,367.259 606.222,363.916 C605.03,362.249 604.005,360.448 603.185,358.556 C602.365,356.655 601.806,354.672 601.419,352.67 C601.043,350.664 600.833,348.62 600.943,346.537 C601.065,344.473 601.405,342.291 602.73,340.318 C603.415,339.362 604.426,338.518 605.592,338.129 C606.753,337.729 607.933,337.724 609.005,337.867 C611.158,338.184 613.049,338.985 614.85,339.859 C621.934,343.531 628.184,348.332 634.095,353.47 C645.864,363.821 656.235,375.564 666.009,387.707 C655.884,375.861 645.172,364.44 633.201,354.526 C630.218,352.04 627.098,349.733 623.922,347.528 C622.302,346.476 620.702,345.39 619.025,344.442 C617.379,343.439 615.682,342.525 613.961,341.736 C612.245,340.956 610.46,340.296 608.738,340.102 C607.883,340.01 607.058,340.065 606.379,340.329 C605.697,340.587 605.164,341.065 604.725,341.692 C603.882,343.007 603.571,344.829 603.537,346.631 C603.492,348.446 603.735,350.305 604.131,352.116 C604.912,355.764 606.471,359.139 608.716,362.088 C610.949,365.046 613.762,367.558 616.819,369.811 L619.164,371.491 C619.969,372.069 620.76,372.589 621.668,373.381 L622.035,373.743 L622.248,373.998 C622.313,374.075 622.386,374.168 622.478,374.331 C622.567,374.502 622.628,374.567 622.715,374.835 C622.792,375.127 622.859,375.345 622.828,375.717 C622.786,376.099 622.659,376.52 622.444,376.777 C622.337,376.922 622.212,377.059 622.078,377.178 C621.929,377.312 621.81,377.387 621.721,377.428 C621.522,377.533 621.28,377.629 621.087,377.679 C620.949,377.706 620.809,377.728 620.669,377.744 C620.359,377.783 620.238,377.756 620.014,377.757 C619.653,377.732 619.339,377.688 619.058,377.635 C617.92,377.421 616.984,377.122 616.017,376.832 C614.113,376.241 612.282,375.616 610.46,375.077 C608.669,374.556 606.775,374.048 605.268,374.004 C604.905,373.991 604.604,374.046 604.49,374.082 C604.486,374.094 604.451,374.095 604.463,374.093 C604.496,374.092 604.505,374.073 604.536,374.047 C604.595,374.023 604.625,373.968 604.661,373.921 C604.712,373.882 604.738,373.811 604.749,373.761 C604.801,373.551 604.781,373.765 604.845,374.002 C604.932,374.286 605.068,374.629 605.241,374.99 C605.977,376.464 607.083,378.022 608.217,379.519 C610.514,382.525 613.052,385.462 615.621,388.343 C620.757,394.115 626.166,399.645 631.789,404.936 C634.603,407.578 637.471,410.162 640.399,412.659 C643.307,415.143 646.362,417.56 649.392,419.993 C652.427,422.415 655.475,424.815 658.548,427.152 C660.087,428.32 661.627,429.469 663.19,430.607 C664.736,431.744 666.408,432.907 668.032,434.314 C668.838,435.003 669.587,435.703 670.322,436.402 L672.442,438.585 L674.56,440.771 C675.272,441.494 675.878,442.332 676.541,443.108 L678.489,445.485 C679.133,446.283 679.673,447.171 680.268,448.012 C680.844,448.868 681.446,449.708 681.998,450.582 L683.521,453.293 C687.655,460.551 689.489,468.776 691.567,476.008 C692.578,479.682 693.851,483.059 695.441,486.267 L696.705,488.621 C697.14,489.396 697.686,490.107 698.167,490.855 C699.085,492.378 700.307,493.716 701.436,495.107 C703.834,497.807 706.435,500.328 709.372,502.711 C712.284,505.109 715.364,507.446 718.462,509.828 C724.664,514.583 730.999,519.524 736.738,525.476 C739.607,528.442 742.293,531.73 744.572,535.412 C745.744,537.229 746.687,539.03 747.635,540.881 C748.1,541.804 748.548,542.732 748.981,543.672 L749.618,545.094 L749.93,545.818 L750.085,546.189 L750.164,546.381 L750.204,546.481 C750.256,546.611 750.157,546.349 750.058,546.158 L750.251,546.6 C751.107,548.77 751.871,551.029 752.47,553.328 C753.075,555.623 753.51,557.935 753.884,560.113 C754.258,562.29 754.591,564.344 754.996,566.343 C755.4,568.337 755.888,570.311 756.434,572.219 C757.513,576.003 759.142,579.772 760.853,583.76 C762.56,587.739 764.244,591.692 766.024,595.526 C769.587,603.196 773.624,610.502 778.559,617.098 C781.007,620.405 783.687,623.517 786.578,626.403 C787.282,627.145 788.027,627.845 788.781,628.532 C789.539,629.228 790.248,629.914 791.078,630.629 C792.687,632.055 794.27,633.407 795.879,634.728 C802.294,639.966 809.226,644.328 816.702,646.981 C820.433,648.309 824.288,649.134 828.173,649.499 C832.056,649.863 835.991,649.782 839.844,649.109 C847.577,647.845 854.935,644.468 861.787,639.967 C865.232,637.723 868.554,635.209 871.935,632.548 C875.352,629.869 878.664,627.275 881.668,624.521 C884.667,621.765 887.392,618.846 889.694,615.635 C892.044,612.461 893.918,608.946 895.461,605.324 C898.586,598.082 899.597,590.054 899.655,581.812 C899.639,573.542 898.719,565.061 897.652,556.53 L895.958,543.697 C895.378,539.467 894.71,535.355 893.825,531.234 C893.391,529.186 892.872,526.889 892.548,524.483 C892.235,522.091 892.086,519.785 892.005,517.525 C891.854,513.002 891.921,508.408 892.443,503.775 C892.94,499.152 894.069,494.483 895.284,490.28 C896.48,486.078 897.426,482.487 897.527,478.689 C897.665,474.895 897.23,470.937 896.472,466.892 C895.72,462.847 894.693,458.761 893.539,454.694 C892.385,450.627 891.101,446.568 889.731,442.534 C889.049,440.516 888.334,438.506 887.61,436.501 L886.499,433.506 L885.933,432.019 L885.648,431.281 L885.505,430.915 L885.469,430.823 C885.424,430.713 885.309,430.395 885.251,430.179 C885.114,429.696 885.033,429.191 885.009,428.708 L885.366,430.563 C878.835,414.213 873.169,397.504 868.463,380.503 C863.839,363.456 860.022,346.25 858.207,328.375 L858.063,326.657 L858.001,325.615 L857.968,324.797 L857.836,321.523 C857.752,319.343 857.756,317.05 857.748,314.816 C857.79,310.316 858.038,305.811 858.419,301.37 C859.23,292.464 860.352,284.07 860.507,275.616 C860.764,267.17 860.223,258.653 859.431,250.118 C859.016,245.849 858.511,241.571 857.948,237.297 L857.059,230.892 L856.579,227.696 L856.331,226.103 L856.204,225.311 L856.141,224.916 L856.109,224.721 L856.055,224.35 C856.03,224.136 856.015,223.921 856.009,223.707 L856.077,224.533 C855.207,219.32 854.214,214.18 853.033,209.088 C851.846,204.004 850.433,198.855 849.125,193.585 C846.517,183.034 844.346,172.471 842.504,161.772 C842.045,159.099 841.632,156.41 841.229,153.754 C840.823,151.103 840.458,148.481 839.937,146.263 C839.42,144.077 838.613,142.098 837.482,139.837 C836.355,137.626 835.14,135.479 833.781,133.415 C832.407,131.353 830.904,129.373 829.254,127.289 C827.627,125.198 825.769,122.979 824.162,120.115 C822.543,117.286 821.445,113.881 821.099,110.672 C820.717,107.469 820.89,104.062 821.73,100.859 C822.547,97.645 823.96,94.793 825.405,92.279 C826.861,89.754 828.364,87.502 829.727,85.302 C831.09,83.105 832.345,80.967 833.386,78.775 C834.396,76.565 835.355,74.321 836.064,71.957 C839.027,62.557 839.739,52.254 838.634,42.252 C838.366,39.748 837.969,37.26 837.444,34.811 C836.941,32.354 836.282,29.944 835.508,27.598 C834.741,25.247 833.829,22.964 832.751,20.827 C831.682,18.689 830.457,16.674 829.071,14.951 C827.692,13.23 826.132,11.824 824.587,10.991 C823.81,10.579 823.08,10.288 822.265,10.155 C821.452,10.013 820.582,9.946 819.62,10.052 C817.712,10.228 815.573,10.85 813.426,11.778 C811.273,12.701 809.103,13.873 806.958,15.175 C802.664,17.792 798.464,20.891 794.32,24.103 C790.178,27.334 786.085,30.709 782.002,34.127 C777.951,37.544 773.767,41.03 769.854,44.449 C767.879,46.182 765.948,47.943 763.97,49.761 C761.982,51.564 759.952,53.496 757.382,55.343 C756.103,56.247 754.722,57.115 753.312,57.811 C751.9,58.515 750.518,59.126 749.104,59.621 C746.318,60.692 743.306,61.432 740.263,61.879 C737.2,62.304 734.147,62.276 731.241,62.09 C728.314,61.901 725.589,61.486 722.896,61.113 C717.558,60.324 712.443,59.581 707.273,59.175 C702.114,58.767 696.923,58.618 691.745,58.722 C686.569,58.854 681.408,59.23 676.266,59.908 C671.12,60.564 665.998,61.513 660.82,62.588 C655.633,63.683 650.361,64.797 645.236,65.973 C640.1,67.158 635.046,68.454 630.259,70.098 L628.47,70.719 L626.737,71.404 C625.557,71.834 624.489,72.382 623.369,72.871 C622.823,73.13 622.317,73.424 621.787,73.697 C621.258,73.97 620.732,74.246 620.262,74.565 L618.804,75.479 L617.487,76.479 C615.809,77.854 614.391,79.349 613.463,81.007 C613.222,81.396 612.853,82.15 612.447,82.835 C612.036,83.541 611.566,84.281 610.989,85.031 C610.412,85.78 609.736,86.544 608.878,87.278 C608.015,88.008 606.921,88.709 605.621,89.177 C604.986,89.421 604.258,89.572 603.584,89.671 C602.969,89.719 602.348,89.791 601.734,89.737 C600.481,89.705 599.341,89.397 598.293,89.046 C596.263,88.28 594.788,87.253 593.523,86.307 C591.03,84.384 589.208,82.594 587.303,81.164 C583.495,78.258 579.049,75.698 574.683,74.07 C572.516,73.268 570.302,72.736 568.556,72.708 C568.319,72.678 568.162,72.738 567.961,72.74 C567.783,72.765 567.551,72.735 567.416,72.788 C567.136,72.876 566.793,72.895 566.65,73.016 C566.406,73.076 566.344,73.177 566.211,73.247 C566.165,73.316 566.108,73.369 566.034,73.412 C565.977,73.513 565.914,73.614 565.836,73.702 C565.56,74.192 565.192,74.9 564.966,75.923 C564.705,76.882 564.53,78.027 564.381,79.192 C564.104,81.56 564.006,84.128 563.949,86.714 C563.858,91.891 563.952,97.3 564.025,102.566 C564.113,107.632 564.738,112.453 566.055,117.218 C566.381,118.406 566.734,119.544 567.131,120.615 C567.53,121.693 567.988,122.667 568.606,124.064 C568.906,124.754 569.221,125.525 569.483,126.301 C569.75,127.048 569.969,127.892 570.181,128.741 C570.551,130.443 570.764,132.212 570.709,133.957 C570.658,135.698 570.409,137.4 570.02,139.01 C569.613,140.607 569.085,142.113 568.497,143.536 C567.306,146.365 565.897,148.862 564.592,151.197 C563.292,153.526 562.055,155.724 561.253,157.765 C560.848,158.784 560.545,159.759 560.37,160.664 C560.209,161.566 560.181,162.389 560.273,163.177 C560.368,163.961 560.566,164.742 560.927,165.512 C561.28,166.28 561.767,167.042 562.49,167.994 C563.2,168.941 564.148,170.075 565.086,171.522 C566.024,172.958 566.879,174.731 567.363,176.544 C567.848,178.383 568.056,180.108 568.03,181.933 C568.016,182.856 567.918,183.847 567.746,184.75 C567.577,185.657 567.37,186.404 567.25,186.929 C567.126,187.461 567.064,187.826 567.025,188.225 C566.986,188.613 566.99,189.056 567.008,189.52 C567.061,190.464 567.22,191.326 567.491,192.171 C568.009,193.851 569.164,195.573 570.766,197.899 C572.345,200.184 574.155,203.222 574.996,206.626 C575.439,208.325 575.627,210.076 575.674,211.776 C575.672,213.456 575.534,215.077 575.305,216.578 C574.841,219.576 574.176,222.184 573.701,224.67 C573.222,227.13 572.874,229.569 572.804,231.807 C572.718,234.028 573.008,236.037 573.617,238.37 C574.217,240.679 575.051,243.152 575.905,245.651 L578.524,253.242 C580.271,258.337 581.967,263.469 583.589,268.613 L588.386,283.989 C589.946,289.163 591.522,294.315 592.787,299.815 C593.391,302.596 593.995,305.394 594.07,308.774 C594.105,309.577 594.038,310.574 593.955,311.406 L593.607,313.672 C593.426,315.196 592.964,316.653 592.604,318.135 C590.956,324.021 587.922,329.298 584.427,333.944 C580.909,338.609 576.815,342.617 572.545,346.25 C568.263,349.876 563.803,353.167 559.26,356.2 C550.095,362.162 540.745,367.956 530.728,372.499 L527.012,374.275 C525.785,374.895 524.484,375.341 523.223,375.882 L515.598,378.988 C510.419,380.758 505.276,382.699 500.02,384.14 C494.798,385.77 489.53,387.036 484.274,388.403 C479.019,389.624 473.752,390.878 468.521,392.009 L452.867,395.486 C447.71,396.732 442.504,397.862 437.409,399.254 C427.128,401.805 417.102,405.051 407.138,408.483 L399.768,411.33 L396.082,412.753 C395.47,412.994 394.85,413.218 394.243,413.474 L392.434,414.269 L385.196,417.449 L381.577,419.039 C380.374,419.578 379.191,420.168 377.997,420.73 C368.453,425.262 359.075,430.352 349.244,435.061 C344.347,437.431 339.263,439.631 334.011,441.536 C331.399,442.52 328.683,443.31 325.975,444.103 L321.832,445.101 C320.453,445.436 319.027,445.621 317.626,445.886 C311.986,446.769 306.208,447.145 300.494,446.728 C297.59,446.576 295.097,446.243 292.643,446.185 C290.214,446.112 287.877,446.198 285.697,446.6 C283.519,447.001 281.497,447.686 279.673,448.69 C277.835,449.7 276.243,451.035 274.945,452.558 C272.323,455.562 270.966,460.254 269.26,465.459 C267.606,470.671 265.299,476.343 261.835,481.257 C260.912,482.463 260.117,483.656 259.046,484.861 C257.975,486.093 256.742,487.245 255.529,488.225 C253.085,490.178 250.643,491.697 248.21,493.108 C243.341,495.897 238.461,498.309 233.556,500.632 C228.656,502.945 223.729,505.178 218.724,507.301 C208.717,511.568 198.512,515.224 188.475,518.864 C178.425,522.504 168.43,526.221 158.499,530.078 C153.541,532.016 148.599,533.978 143.701,536.019 L136.344,539.13 C133.863,540.162 131.354,541.316 128.328,542.218 C126.835,542.681 125.352,542.983 123.926,543.269 C122.518,543.529 121.139,543.757 119.771,543.961 C117.026,544.369 114.289,544.692 111.574,544.97 C106.153,545.535 100.768,545.869 95.723,546.51 C93.212,546.83 90.786,547.258 88.738,547.897 C87.729,548.22 86.835,548.604 86.171,549.012 C85.49,549.421 85.116,549.82 84.861,550.211 C84.604,550.612 84.421,551.062 84.365,551.728 C84.292,552.383 84.367,553.278 84.562,554.32 C84.757,555.374 85.082,556.561 85.428,557.992 C85.599,558.715 85.78,559.502 85.909,560.466 C86.025,561.429 86.14,562.597 85.832,564.16 C85.644,564.964 85.365,565.825 84.834,566.667 C84.322,567.504 83.656,568.222 82.923,568.768 C82.199,569.323 81.314,569.773 80.467,570.019 C79.605,570.286 78.817,570.364 78.094,570.384 C76.678,570.394 75.639,570.149 74.743,569.916 C73.852,569.672 73.1,569.404 72.398,569.145 C71.006,568.625 69.829,568.134 68.733,567.754 C67.641,567.367 66.655,567.102 65.808,566.978 C64.961,566.861 64.291,566.894 63.733,567.034 C63.476,567.103 63.133,567.221 62.967,567.32 C62.783,567.423 62.611,567.526 62.393,567.731 C61.957,568.135 61.369,568.882 60.782,569.843 C60.191,570.793 59.591,571.893 58.99,573.027 L57.199,576.508 C56.628,577.628 56.112,578.753 55.617,579.878 C55.135,581.006 54.693,582.13 54.293,583.28 C53.888,584.436 53.54,585.606 53.102,586.989 C52.664,588.363 52.028,590.129 51.01,591.756 C50.027,593.38 48.757,594.783 47.403,595.96 C44.657,598.295 41.623,599.686 38.698,600.677 C32.812,602.601 27.113,603.116 21.592,603.472 C18.836,603.637 16.112,603.72 13.501,603.835 C12.202,603.894 10.919,603.963 9.776,604.079 C9.21,604.136 8.671,604.209 8.285,604.288 C8.084,604.325 7.956,604.367 7.912,604.378 C7.889,604.369 7.998,604.402 8.53,604.002 C8.744,603.818 9.219,603.409 9.557,602.72 C9.903,602.055 10.083,601.131 9.969,600.333 C9.879,599.525 9.545,598.936 9.362,598.649 C9.125,598.309 9.017,598.211 8.916,598.115 C8.639,597.891 9.01,598.182 9.41,598.354 C10.258,598.768 11.446,599.216 12.624,599.638 L20.175,602.213 C25.339,604.004 30.611,605.987 35.741,608.821 C38.302,610.247 40.836,611.895 43.212,613.967 C45.575,616.028 47.809,618.569 49.385,621.699 C50.978,624.79 51.775,628.472 51.546,632.006 C51.34,635.542 50.25,638.723 49.05,641.44 C47.861,644.146 46.466,646.6 45.717,648.511 C45.328,649.442 45.237,650.19 45.269,650.17 C45.268,650.185 45.225,650.006 45.197,649.958 C45.171,649.903 45.123,649.896 45.202,649.937 C45.292,650.044 45.935,650.324 46.802,650.461 C47.67,650.611 48.738,650.668 49.858,650.649 C52.113,650.611 54.587,650.289 57.065,649.86 C62.046,648.988 67.137,647.682 72.23,646.295 C77.328,644.9 82.45,643.389 87.632,641.917 C92.826,640.454 98.041,638.969 103.552,637.821 C106.325,637.261 109.138,636.76 112.337,636.615 C113.955,636.573 115.675,636.576 117.835,637.126 C118.932,637.443 120.182,637.9 121.488,638.929 C122.801,639.976 123.924,641.632 124.31,643.486 C124.704,645.35 124.386,646.916 124.045,648.034 C123.685,649.177 123.253,650.038 122.835,650.818 C121.992,652.347 121.164,653.517 120.402,654.634 C118.885,656.811 117.603,658.795 117.104,660.319 C116.869,661.064 116.812,661.6 116.878,661.961 C116.918,662.345 117.093,662.663 117.413,663.116 C117.55,663.341 117.837,663.576 118.082,663.831 C118.229,663.955 118.411,664.075 118.57,664.203 C118.72,664.334 118.907,664.458 119.117,664.577 L119.715,664.949 L120.398,665.295 C120.829,665.542 121.373,665.73 121.858,665.957 C123.906,666.805 126.273,667.439 128.695,667.961 C131.129,668.478 133.65,668.88 136.203,669.209 C141.314,669.869 146.559,670.237 151.831,670.507 C162.387,671.042 173.074,671.088 183.846,671.444 C194.602,671.735 205.384,672.288 216.172,673.265 C218.868,673.508 221.565,673.817 224.259,674.113 C226.948,674.46 229.643,674.782 232.316,675.191 C237.672,675.957 242.966,676.882 248.195,677.644 C269.053,680.772 290.46,680.79 311.775,680.635 C333.102,680.327 354.432,679.016 375.687,676.859 C396.943,674.691 418.127,671.704 439.201,668.027 C460.264,664.279 481.213,659.829 502.009,654.707" id="Fill-13" fill="#FFFFFF"></path>
            <path d="M583.009,90.5971 C580.609,91.1111 578.68,91.2931 576.896,91.7331 C576.196,90.9801 575.225,90.4251 575.045,90.3511 C575.045,90.3511 575.014,90.3311 575.084,90.3621 C575.108,90.3701 575.134,90.3751 575.159,90.3761 C575.206,90.3891 575.277,90.4071 575.337,90.4121 C575.421,90.4131 575.696,90.4551 575.896,90.4191 C576.196,90.4101 576.462,90.3351 576.827,90.2141 C577.164,90.0651 577.478,89.9301 577.751,89.6961 C578.041,89.4181 578.17,89.3241 578.318,89.1181 C578.381,89.0391 578.453,88.8821 578.48,88.8541 C578.51,88.8151 578.537,88.7731 578.56,88.7291 C578.605,88.6461 578.628,88.5061 578.632,88.5511 C578.639,88.5521 578.638,88.5501 578.629,88.5481 L578.611,88.7061 C578.585,88.7941 578.579,88.9961 578.57,89.1911 C578.549,89.3631 578.56,89.6111 578.563,89.8451 C578.56,90.0711 578.572,90.3211 578.595,90.5901 C578.726,92.6881 579.196,95.1431 579.722,97.5401 C579.986,98.7481 580.285,99.9681 580.597,101.1881 C579.434,102.7871 578.351,104.4101 576.765,106.2071 C574.489,105.4881 572.712,104.5961 570.909,103.6661 C570.575,102.3591 570.252,101.0451 569.959,99.7041 C569.378,97.0081 568.825,94.3271 568.614,91.2141 C568.584,90.8331 568.565,90.4321 568.565,90.0051 C568.559,89.5871 568.547,89.1831 568.581,88.7041 C568.605,88.2471 568.626,87.7981 568.718,87.2421 C568.762,86.9711 568.79,86.7311 568.855,86.4361 C568.933,86.1181 569.019,85.8031 569.112,85.4891 C569.18,85.2111 569.363,84.7841 569.543,84.4041 L569.829,83.8361 C569.921,83.6571 570.118,83.3881 570.274,83.1761 C570.848,82.3361 571.987,81.3461 573.26,80.8721 C573.922,80.6071 574.521,80.5141 575.14,80.4481 C575.665,80.4201 576.269,80.4301 576.674,80.5021 C576.894,80.5341 577.128,80.5711 577.334,80.6161 L577.881,80.7611 C578.269,80.8671 578.535,80.9801 578.84,81.0991 C581.067,82.0561 582.175,83.1381 583.463,84.0591 C583.663,86.1931 583.595,88.2091 583.009,90.5971" id="Fill-15" fill="#FFFFFF"></path>
            <g id="Group-19" transform="translate(881.000000, 433.707000)">
                <mask id="mask-2" fill="white">
                    <use xlink:href="#path-1"></use>
                </mask>
                <g id="Clip-18"></g>
                <path d="M1.009,277 C2.101,273.29 3.093,269.589 3.79,265.852 C4.542,262.135 5.054,258.4 5.287,254.687 C5.81,247.252 5.224,239.971 3.507,232.969 C3.107,231.207 2.912,229.393 2.637,227.553 C2.345,225.702 1.954,223.86 1.59,221.903 C1.241,219.937 0.862,217.94 0.705,215.665 C0.554,213.42 0.579,210.873 1.363,208.197 C1.733,206.87 2.347,205.545 3.082,204.358 C3.837,203.174 4.693,202.077 5.771,201.109 C7.911,199.114 10.75,197.901 13.057,197.404 C15.41,196.856 17.464,196.672 19.394,196.464 C21.32,196.266 23.135,196.091 24.899,195.828 C31.869,194.816 38.673,192.531 45.007,189.186 C51.32,185.872 57.192,181.615 61.867,176.465 C64.205,173.896 66.253,171.127 67.831,168.167 L68.936,165.9 L69.215,165.336 L69.435,164.739 L69.875,163.549 C70.536,161.991 70.897,160.304 71.368,158.663 C72.074,155.294 72.554,151.835 72.608,148.289 C72.651,144.748 72.497,141.166 72.013,137.573 C71.101,130.37 69.287,123.246 67.085,116.006 C66.048,112.509 64.782,109.066 63.4,105.605 C62.019,102.135 60.475,98.683 59.01,94.895 C58.663,93.897 58.282,92.981 57.971,91.915 L57.494,90.347 L57.095,88.66 C56.627,86.363 56.363,83.686 56.975,80.852 C57.161,80.155 57.366,79.461 57.587,78.775 C57.87,78.125 58.183,77.484 58.503,76.85 C59.177,75.573 60.157,74.317 61.283,73.3 C63.582,71.215 66.289,70.229 68.603,69.681 C70.953,69.131 73.097,68.962 75.021,68.796 C76.911,68.645 78.738,68.475 79.666,68.183 C79.905,68.119 80.009,68.052 80.073,68.035 C80.067,68.016 80.038,68.059 79.884,68.194 C79.613,68.502 79.546,68.881 79.573,68.783 C79.59,68.689 79.499,68.193 79.337,67.66 C79.134,67.087 78.876,66.44 78.511,65.754 C77.081,62.995 74.868,60.064 72.551,57.284 C70.212,54.484 67.685,51.748 65.081,49.063 C62.48,46.374 59.788,43.737 57.047,41.138 C55.678,39.84 54.311,38.529 52.888,37.281 L50.733,35.428 C50.024,34.799 49.362,34.12 48.709,33.427 C38.44,22.141 27.635,11.208 17.009,0 C30.168,8.099 42.9,16.794 55.407,26.001 C56.975,27.15 58.334,28.531 59.714,29.891 C61.095,31.252 62.542,32.538 63.938,33.891 C66.754,36.562 69.535,39.285 72.26,42.101 C74.987,44.914 77.663,47.805 80.235,50.884 C81.524,52.418 82.776,54.02 83.989,55.7 C85.202,57.381 86.363,59.173 87.416,61.206 C87.945,62.213 88.43,63.337 88.849,64.574 C89.236,65.868 89.611,67.256 89.57,69.088 C89.534,70.888 88.888,73.23 87.273,74.932 C86.499,75.805 85.643,76.364 84.821,76.836 C84.029,77.247 83.248,77.557 82.566,77.753 C81.174,78.166 79.992,78.335 78.898,78.472 C77.806,78.603 76.806,78.681 75.859,78.761 C73.971,78.915 72.284,79.082 70.903,79.413 C69.512,79.738 68.53,80.203 67.984,80.724 C67.697,80.995 67.468,81.262 67.258,81.681 C67.163,81.909 67.047,82.125 66.929,82.342 C66.881,82.576 66.818,82.801 66.737,83.023 C66.539,83.95 66.589,85.164 66.882,86.606 L67.142,87.716 L67.504,88.895 C67.722,89.669 68.078,90.525 68.356,91.338 C69.651,94.695 71.23,98.241 72.682,101.886 C74.141,105.536 75.524,109.289 76.664,113.137 C78.917,120.543 80.923,128.313 81.934,136.32 C82.47,140.32 82.661,144.411 82.605,148.523 C82.538,152.643 81.99,156.804 81.111,160.923 C80.544,162.966 80.073,165.03 79.255,167.016 L78.695,168.517 L78.41,169.266 L78.061,169.991 L76.647,172.889 C74.618,176.687 72.068,180.115 69.255,183.205 C63.611,189.398 56.868,194.244 49.642,198.047 C42.436,201.854 34.513,204.539 26.322,205.727 C24.297,206.026 22.298,206.217 20.416,206.411 C18.54,206.604 16.772,206.8 15.393,207.127 C13.968,207.454 13.206,207.887 12.52,208.488 C12.162,208.793 11.844,209.226 11.566,209.652 C11.303,210.089 11.088,210.516 10.952,211.034 C10.312,213.027 10.722,216.46 11.421,220.074 C11.761,221.882 12.134,223.792 12.546,225.706 C12.966,227.632 13.415,229.594 13.518,231.629 C13.702,235.697 13.582,239.825 13.087,243.85 C12.598,247.877 11.853,251.839 10.696,255.658 C9.569,259.482 8.176,263.184 6.566,266.751 C4.902,270.3 3.078,273.733 1.009,277" id="Fill-17" fill="#FFFFFF" mask="url(#mask-2)"></path>
            </g>
            <path d="M266.009,514.707 C269.21,513.32 272.404,512.017 275.594,510.792 C278.782,509.546 281.962,508.348 285.136,507.186 C291.697,506.344 298.218,505.226 304.735,504.097 C317.761,501.791 330.709,499.051 343.558,495.906 C356.407,492.763 369.152,489.191 381.766,485.21 C388.074,483.22 394.349,481.126 400.588,478.931 C403.954,478.533 407.318,478.097 410.724,477.736 L415.838,477.177 C417.562,477.031 419.266,476.824 421.009,476.707 C419.638,477.783 418.236,478.787 416.841,479.819 L412.587,482.769 C409.739,484.722 406.834,486.56 403.906,488.364 C397.564,490.595 391.187,492.724 384.776,494.747 C371.953,498.793 358.999,502.424 345.939,505.618 C332.879,508.814 319.718,511.601 306.478,513.943 C299.861,515.136 293.212,516.128 286.571,517.183 C283.144,516.966 279.716,516.659 276.289,516.259 C274.576,516.064 272.861,515.825 271.15,515.585 C269.432,515.294 267.724,515.05 266.009,514.707" id="Fill-20" fill="#FFFFFF"></path>
            <path d="M246.009,578.707 C249.958,577.884 253.879,577.128 257.778,576.425 L269.416,574.314 C277.133,574.44 284.851,574.215 292.56,573.872 C307.975,573.133 323.363,571.704 338.63,569.434 C353.904,567.213 369.06,564.196 384.032,560.451 C391.518,558.576 398.958,556.518 406.344,554.279 L418.104,552.971 L424.029,552.309 C426.024,552.133 427.995,551.867 430.009,551.707 C428.342,552.836 426.649,553.907 424.95,554.98 C423.241,556.024 421.521,557.051 419.791,558.064 C416.335,560.107 412.804,561.984 409.251,563.848 C401.707,566.133 394.108,568.237 386.461,570.151 C371.166,573.978 355.683,577.059 340.081,579.327 C324.486,581.646 308.767,583.107 293.021,583.861 C285.146,584.256 277.263,584.341 269.38,584.414 C267.41,584.07 265.446,583.648 263.485,583.262 C261.525,582.835 259.57,582.405 257.621,581.934 C255.672,581.472 253.73,580.949 251.793,580.436 C249.859,579.865 247.928,579.333 246.009,578.707" id="Fill-22" fill="#FFFFFF"></path>
            <path d="M95.009,600.707 C96.779,598.378 98.638,596.137 100.598,594.018 C102.547,591.88 104.573,589.828 106.66,587.843 C111.581,585.205 116.485,582.538 121.508,580.099 C131.534,575.186 141.836,570.838 152.347,567.073 C162.86,563.312 173.584,560.141 184.451,557.583 C189.885,556.303 195.355,555.175 200.851,554.197 C203.729,554.447 206.592,554.715 209.456,555.15 C210.887,555.362 212.314,555.586 213.738,555.828 C215.166,556.104 216.587,556.371 218.009,556.707 C216.709,557.393 215.403,557.971 214.113,558.63 L210.243,560.459 L202.593,564.045 C197.281,564.989 191.995,566.08 186.743,567.316 C176.239,569.789 165.876,572.854 155.716,576.488 C145.558,580.128 135.601,584.33 125.91,589.077 C121.079,591.478 116.262,593.919 111.612,596.657 C108.911,597.356 106.192,598.064 103.43,598.745 C100.678,599.441 97.877,600.1 95.009,600.707" id="Fill-24" fill="#FFFFFF"></path>
            <path d="M155.009,629.707 C155.701,628.808 156.446,627.998 157.175,627.135 C157.929,626.325 158.697,625.525 159.483,624.746 C161.063,623.208 162.707,621.732 164.423,620.365 C164.857,620.036 165.384,619.959 165.894,619.844 C166.404,619.725 166.889,619.537 167.384,619.376 L170.346,618.39 C172.339,617.785 174.324,617.156 176.343,616.637 C184.38,614.433 192.638,612.985 200.97,612.31 C209.301,611.629 217.709,611.738 226.027,612.687 C230.186,613.144 234.32,613.837 238.41,614.714 C240.3,615.874 242.145,617.077 243.912,618.422 C244.796,619.094 245.667,619.774 246.522,620.47 C247.365,621.208 248.207,621.914 249.009,622.707 L236.305,624.489 C232.533,623.682 228.725,623.042 224.891,622.623 C217.227,621.749 209.479,621.647 201.782,622.276 C194.085,622.901 186.433,624.237 178.959,626.289 C175.222,627.306 171.501,628.425 167.894,629.86 L161.589,629.84 C159.455,629.844 157.266,629.798 155.009,629.707" id="Fill-26" fill="#FFFFFF"></path>
            <path d="M596.009,302.707 C596.802,299.915 597.754,297.184 598.687,294.426 C599.689,291.705 600.729,288.987 601.834,286.288 C604.05,280.892 606.552,275.589 609.366,270.401 C616.286,260.962 623.805,251.75 633.239,244.152 C637.822,240.324 643.217,236.785 649.319,234.608 C655.445,232.439 661.874,231.654 668.323,232.253 C671.547,232.562 674.785,233.251 677.906,234.408 C678.694,234.67 679.455,235.017 680.217,235.361 C680.988,235.683 681.729,236.076 682.462,236.486 L683.565,237.093 L684.621,237.781 C685.325,238.246 686.043,238.712 686.62,239.152 C689.138,241.022 691.684,243.156 693.864,246.138 C694.941,247.637 695.945,249.393 696.543,251.536 C696.693,252.07 696.831,252.607 696.893,253.198 C696.97,253.776 697.051,254.348 697.023,254.955 C697.033,256.141 696.89,257.376 696.447,258.702 C695.989,260.013 695.27,261.181 694.556,262.067 C693.86,262.905 693.163,263.602 692.557,264.145 C691.317,265.27 690.235,266.145 689.178,267.053 C687.072,268.84 685.141,270.627 683.201,272.587 C681.206,274.601 679.217,276.582 677.507,278.537 C676.646,279.513 675.854,280.487 675.238,281.406 C674.612,282.32 674.164,283.199 674.001,283.789 C673.836,284.381 673.889,284.61 673.942,284.804 C673.989,284.921 674.167,285.225 674.95,285.81 C675.703,286.388 676.926,287.03 678.499,288.151 C679.26,288.686 680.2,289.479 681.065,290.554 C681.952,291.676 682.689,293.234 682.919,294.801 C683.186,296.348 682.95,298.081 682.433,299.419 C681.919,300.808 681.25,301.719 680.607,302.591 C679.313,304.199 678.039,305.323 676.793,306.347 C674.292,308.39 671.827,310.018 669.347,311.631 C668.109,312.433 666.868,313.197 665.628,313.966 L661.971,316.202 C659.532,317.693 657.068,319.184 654.563,320.656 C652.053,322.126 649.502,323.582 646.763,324.945 C645.38,325.626 643.966,326.259 642.45,326.892 C640.983,327.562 639.322,328.172 637.496,328.343 L636.105,328.432 L634.666,328.413 C633.71,328.353 632.663,328.245 631.898,328.04 C631.073,327.839 630.244,327.702 629.449,327.436 C628.655,327.172 627.863,326.92 627.092,326.635 C624.022,325.419 621.255,323.751 618.867,321.761 C616.469,319.782 614.395,317.561 612.582,315.207 C610.816,312.811 609.254,310.326 608.009,307.707 C610.087,309.724 612.252,311.585 614.555,313.184 C616.836,314.799 619.228,316.177 621.685,317.194 C624.147,318.193 626.618,318.934 629.071,319.175 L630.893,319.275 C631.492,319.312 632.097,319.227 632.685,319.216 C633.332,319.215 633.718,319.095 634.184,318.995 L634.876,318.795 L635.593,318.525 C635.827,318.469 636.086,318.325 636.34,318.257 C636.593,318.167 636.849,318.114 637.126,318.014 C637.4,317.934 637.676,317.858 637.956,317.792 L638.82,317.519 C639.97,317.135 641.136,316.547 642.319,315.986 C644.689,314.81 647.097,313.441 649.508,312.027 C651.92,310.61 654.337,309.149 656.763,307.666 L660.405,305.438 C661.589,304.705 662.776,303.973 663.931,303.225 C666.233,301.733 668.527,300.195 670.44,298.623 C671.404,297.851 672.247,297.035 672.74,296.418 C672.935,296.145 673.11,295.88 673.067,295.914 C673.049,295.922 673.011,296.196 673.037,296.336 C673.047,296.489 673.17,296.722 673.188,296.714 C673.147,296.691 673.024,296.514 672.613,296.235 C671.878,295.682 670.565,294.985 669.025,293.865 C668.638,293.579 668.253,293.29 667.839,292.91 C667.44,292.577 667.029,292.153 666.631,291.7 C666.23,291.29 665.86,290.705 665.505,290.188 C665.166,289.636 664.876,289.014 664.614,288.409 C663.637,285.924 663.747,283.157 664.389,281.027 C665.025,278.874 665.996,277.237 666.962,275.793 C667.939,274.347 668.962,273.112 669.985,271.948 C672.034,269.612 674.096,267.572 676.113,265.534 C678.183,263.438 680.443,261.347 682.687,259.446 C683.795,258.498 684.925,257.571 685.795,256.777 C686.254,256.372 686.55,256.04 686.773,255.789 C686.947,255.56 686.961,255.488 686.988,255.456 C686.995,255.425 687.037,255.233 687.023,254.992 C687.053,254.884 687.008,254.75 686.994,254.622 C687.001,254.498 686.948,254.348 686.904,254.196 C686.739,253.588 686.348,252.806 685.761,251.997 C684.579,250.353 682.749,248.712 680.69,247.204 C680.132,246.778 679.645,246.48 679.16,246.159 L678.429,245.673 L677.654,245.255 C677.143,244.966 676.628,244.685 676.078,244.464 C675.539,244.222 675.007,243.968 674.437,243.787 C672.21,242.96 669.826,242.444 667.376,242.208 C662.472,241.736 657.306,242.372 652.687,244.024 C648.024,245.692 643.685,248.449 639.534,251.922 C635.361,255.29 631.458,259.114 627.835,263.235 C626.9,264.234 626.033,265.308 625.148,266.361 C624.259,267.411 623.379,268.469 622.542,269.571 C621.709,270.674 620.801,271.714 620.045,272.881 C619.283,274.041 618.547,275.214 617.604,276.244 C613.821,280.363 610.167,284.674 606.562,289.087 C604.752,291.29 602.993,293.543 601.249,295.82 C599.473,298.082 597.762,300.395 596.009,302.707" id="Fill-28" fill="#FFFFFF"></path>
            <path d="M693.009,270.707 C697.317,268.156 702.129,266.5 707.156,265.547 C712.038,266.117 716.906,267.013 721.594,268.553 C722.772,268.917 723.931,269.334 725.083,269.773 C726.259,270.201 727.275,270.63 728.414,271.095 C730.644,272.023 732.872,273.074 735.04,274.245 C739.392,276.566 743.506,279.455 747.21,282.838 C754.665,289.59 760.093,298.597 762.699,308.3 C764.003,313.153 764.661,318.16 764.663,323.14 C763.939,325.631 763.03,328.027 761.916,330.302 C761.353,331.438 760.759,332.545 760.127,333.619 C759.448,334.684 758.786,335.727 758.009,336.707 C757.789,335.475 757.61,334.284 757.348,333.104 C757.127,331.934 756.881,330.783 756.59,329.653 C756.002,327.395 755.411,325.228 754.663,323.153 C754.662,319.003 754.11,314.881 753.048,310.918 C750.91,302.996 746.538,295.718 740.447,290.205 C737.408,287.433 734.002,285.022 730.296,283.047 C728.447,282.05 726.543,281.147 724.557,280.321 C723.583,279.923 722.494,279.466 721.523,279.118 C720.542,278.744 719.554,278.387 718.55,278.078 C716.551,277.429 714.514,276.898 712.452,276.487 C711.424,276.262 710.383,276.104 709.345,275.931 C708.823,275.867 708.304,275.772 707.775,275.763 C707.246,275.752 706.711,275.825 706.203,275.612 C704.175,274.707 702.064,273.855 699.869,273.043 C697.674,272.25 695.393,271.47 693.009,270.707" id="Fill-30" fill="#FFFFFF"></path>
            <path d="M694.009,241.707 C696.423,239.043 698.697,236.317 700.727,233.424 C702.779,230.559 704.727,227.655 706.37,224.595 C709.762,218.556 712.375,212.219 713.991,205.769 C714.183,204.959 714.435,204.175 714.715,203.4 C714.99,202.623 715.342,201.868 715.545,201.069 C715.783,200.28 715.995,199.483 716.202,198.685 C716.399,197.885 716.655,197.097 716.763,196.279 C717.023,194.653 717.373,193.04 717.574,191.405 L718.014,186.482 C718.25,179.898 717.602,173.278 715.829,166.899 C714.131,160.5 711.414,154.368 708.013,148.556 C707.157,147.099 706.268,145.665 705.322,144.21 C704.38,142.749 703.469,141.408 702.467,140.049 C700.487,137.348 698.331,134.762 696.05,132.296 C686.892,122.454 675.372,114.899 662.673,110.87 C656.053,108.734 649.55,107.058 643.077,106.673 C636.613,106.261 630.234,107.217 624.341,109.576 C618.459,111.95 613.215,115.665 608.852,120.472 C604.458,125.264 600.889,130.97 597.569,137.068 C596.751,138.581 595.872,140.178 595.104,141.69 C594.356,143.198 593.558,144.681 592.902,146.232 C591.476,149.282 590.326,152.453 589.259,155.645 C588.226,158.851 587.394,162.119 586.713,165.417 C586.387,167.069 586.077,168.724 585.875,170.395 C585.718,172.074 585.624,173.747 585.279,175.401 C582.656,188.615 583.386,202.84 587.009,216.707 C579.67,204.337 575.578,189.711 575.314,174.562 C575.323,173.623 575.363,172.682 575.474,171.75 C575.604,170.82 575.777,169.897 575.924,168.972 C576.101,168.051 576.241,167.126 576.389,166.202 L576.91,163.443 C577.664,159.777 578.592,156.146 579.739,152.582 C580.922,149.033 582.208,145.508 583.79,142.112 C584.524,140.388 585.405,138.734 586.241,137.059 C587.085,135.402 587.923,133.884 588.796,132.269 C592.27,125.899 596.254,119.417 601.487,113.707 C606.673,107.977 613.293,103.227 620.614,100.296 C627.927,97.351 635.955,96.188 643.68,96.691 C651.434,97.157 658.813,99.122 665.704,101.34 C680.144,105.917 693.161,114.501 703.361,125.474 C705.91,128.227 708.314,131.111 710.538,134.145 C711.647,135.646 712.734,137.25 713.717,138.778 C714.71,140.303 715.696,141.89 716.64,143.499 C720.419,149.952 723.53,156.937 725.483,164.292 C727.517,171.626 728.29,179.324 728.003,186.941 L727.497,192.643 C727.264,194.535 726.872,196.406 726.559,198.288 C726.227,200.167 725.623,201.982 725.229,203.851 C724.819,205.715 724.206,207.527 723.46,209.282 C723.115,210.171 722.602,210.987 722.162,211.831 L720.799,214.33 C719.847,215.967 718.794,217.539 717.795,219.123 C716.673,220.634 715.607,222.168 714.441,223.621 C713.244,225.051 712.111,226.514 710.808,227.835 C708.333,230.577 705.615,233.061 702.852,235.422 C700.032,237.729 697.103,239.874 694.009,241.707" id="Fill-32" fill="#FFFFFF"></path>
            <path d="M673.009,94.707 C673.527,94.206 674.046,93.801 674.575,93.355 L676.168,92.197 C677.243,91.44 678.33,90.813 679.434,90.228 C681.451,90.586 683.484,90.823 685.492,91.223 C689.516,91.973 693.493,92.974 697.392,94.218 C701.294,95.454 705.115,96.942 708.833,98.652 C710.692,99.507 712.524,100.42 714.326,101.389 C714.88,102.519 715.405,103.657 715.848,104.889 L716.489,106.737 C716.671,107.394 716.864,108.018 717.009,108.707 C716.323,108.892 715.693,109.001 715.038,109.163 L713.164,109.535 C711.925,109.793 710.754,109.982 709.593,110.197 C707.972,109.326 706.323,108.505 704.651,107.735 C701.306,106.197 697.869,104.858 694.36,103.748 C690.853,102.627 687.276,101.728 683.657,101.053 C681.844,100.739 680.034,100.377 678.194,100.262 C677.368,99.442 676.524,98.599 675.662,97.668 L674.351,96.263 C673.912,95.736 673.461,95.277 673.009,94.707" id="Fill-34" fill="#FFFFFF"></path>
            <path d="M729.009,99.707 C728.614,95.584 728.917,91.281 729.99,87.058 C730.504,84.936 731.241,82.853 732.115,80.793 C732.547,79.771 733.08,78.751 733.57,77.778 C734.041,76.864 734.541,75.881 735.127,74.929 C735.7,73.969 736.543,73.186 737.381,72.407 C738.219,71.624 739.031,70.797 739.926,70.039 C741.69,68.502 743.655,67.123 745.77,65.994 C747.884,64.863 750.126,63.967 752.451,63.383 C753.594,63.011 754.793,62.887 755.967,62.653 C757.149,62.501 758.343,62.395 759.529,62.35 C761.904,62.299 764.262,62.478 766.554,62.893 C768.839,63.326 771.072,63.93 773.214,64.734 C775.36,65.555 777.412,66.496 779.442,67.702 C779.941,67.999 780.478,68.321 781.065,68.751 C781.563,69.135 782.08,69.491 782.553,69.909 C783.514,70.723 784.428,71.603 785.238,72.538 C786.88,74.402 788.174,76.405 789.264,78.373 C790.352,80.346 791.27,82.308 792.093,84.239 C793.751,88.108 795.156,91.898 796.582,95.665 C797.994,99.425 799.425,103.197 800.78,107.082 C801.455,109.028 802.117,110.993 802.718,113.037 C803.317,115.083 803.877,117.179 804.258,119.511 C804.444,120.682 804.59,121.91 804.592,123.307 C804.564,124.707 804.493,126.286 803.677,128.229 C803.292,129.173 802.61,130.218 801.737,131.069 C801.304,131.504 800.796,131.877 800.248,132.207 C799.712,132.563 799.141,132.792 798.55,132.992 C797.938,133.221 797.415,133.293 796.867,133.368 C796.604,133.399 796.301,133.445 796.069,133.445 L795.372,133.437 L794.676,133.409 C794.447,133.395 794.278,133.358 794.075,133.332 C793.694,133.271 793.281,133.212 792.928,133.134 C790.187,132.471 788.232,131.544 786.263,130.649 C784.321,129.742 782.504,128.804 780.694,127.867 C773.513,124.099 766.515,120.393 759.365,116.786 C756.136,114.323 752.887,111.88 749.667,109.357 L744.822,105.583 C743.224,104.285 741.601,103.033 740.009,101.707 C742.042,102.105 744.038,102.589 746.053,103.039 L752.033,104.541 C756.018,105.56 759.953,106.699 763.885,107.866 C771.072,111.491 778.263,115.298 785.3,118.991 C787.054,119.899 788.806,120.802 790.501,121.592 C792.17,122.378 793.906,123.095 795.075,123.367 C795.603,123.49 795.863,123.386 795.396,123.502 C794.919,123.618 794.502,124.188 794.498,124.261 C794.486,124.355 794.6,123.886 794.592,123.291 C794.594,122.68 794.517,121.907 794.385,121.097 C793.833,117.792 792.605,114.04 791.337,110.372 C790.048,106.677 788.633,102.941 787.223,99.186 C785.809,95.445 784.416,91.707 782.909,88.197 C781.404,84.69 779.759,81.441 777.738,79.151 C777.236,78.566 776.695,78.056 776.127,77.571 C775.852,77.319 775.531,77.116 775.24,76.88 C775.023,76.712 774.697,76.515 774.334,76.3 C772.914,75.451 771.305,74.709 769.702,74.098 C768.086,73.49 766.429,73.052 764.773,72.733 C763.113,72.433 761.453,72.316 759.815,72.346 C758.999,72.38 758.187,72.454 757.382,72.553 C756.593,72.731 755.774,72.778 755.008,73.05 C753.435,73.436 751.926,74.043 750.501,74.804 C749.073,75.564 747.73,76.501 746.468,77.602 C745.84,78.151 745.206,78.719 744.652,79.382 C744.104,80.053 743.611,80.77 742.912,81.363 C742.216,81.956 741.489,82.561 740.746,83.245 C740.043,83.886 739.376,84.476 738.722,85.142 C737.39,86.436 736.167,87.867 734.986,89.383 C732.664,92.436 730.634,95.897 729.009,99.707" id="Fill-36" fill="#FFFFFF"></path>
            <path d="M735.009,113.707 C735.803,113.594 736.534,113.568 737.296,113.488 L739.477,113.383 C740.923,113.312 742.302,113.316 743.663,113.327 C745.565,114.653 747.588,115.785 749.577,116.969 C753.581,119.295 757.668,121.48 761.826,123.519 C765.984,125.56 770.216,127.449 774.507,129.189 C776.654,130.059 778.815,130.892 780.989,131.686 C781.825,132.775 782.676,133.857 783.507,135.038 L784.768,136.808 C785.176,137.443 785.605,138.032 786.009,138.707 C785.286,139.009 784.586,139.229 783.869,139.488 L781.757,140.11 C780.345,140.515 778.957,140.805 777.562,141.08 C775.277,140.245 773.005,139.371 770.75,138.457 C766.24,136.628 761.794,134.643 757.425,132.498 C753.056,130.356 748.761,128.06 744.553,125.615 C742.436,124.413 740.396,123.086 738.279,121.883 C737.628,120.633 737.011,119.351 736.469,117.981 L735.677,115.914 C735.451,115.177 735.2,114.482 735.009,113.707" id="Fill-38" fill="#FFFFFF"></path>
            <path d="M769.009,54.707 C771.56,48.637 774.946,42.944 778.877,37.598 C779.382,36.944 780.058,36.484 780.724,36.016 C781.385,35.542 781.979,34.989 782.613,34.484 C783.864,33.454 785.138,32.451 786.42,31.457 C788.976,29.494 791.684,27.592 794.297,25.829 C796.896,24.074 799.508,22.307 802.208,20.568 C804.921,18.834 807.687,17.113 810.862,15.566 C812.466,14.803 814.139,14.055 816.275,13.554 C816.762,13.41 817.385,13.332 817.968,13.25 C818.523,13.15 819.223,13.147 819.897,13.158 C821.246,13.166 822.868,13.54 824.355,14.293 C825.849,15.089 827.018,16.283 827.807,17.437 C828.631,18.617 829.08,19.742 829.452,20.817 C830.135,22.95 830.358,24.858 830.487,26.689 C830.686,30.322 830.425,33.674 830.033,36.955 C829.638,40.234 829.091,43.431 828.473,46.593 C827.211,52.903 825.677,59.079 823.998,65.19 C822.323,71.302 820.514,77.353 818.624,83.368 C816.982,86.157 815.314,88.923 813.53,91.642 L810.847,95.708 C809.899,97.042 808.995,98.39 808.009,99.707 C808.022,98.059 808.116,96.441 808.166,94.811 L808.433,89.968 C808.605,86.743 808.861,83.555 809.084,80.372 C810.945,74.448 812.721,68.507 814.353,62.551 C815.989,56.596 817.47,50.619 818.662,44.656 C819.245,41.678 819.75,38.703 820.104,35.77 C820.462,32.844 820.654,29.929 820.506,27.31 C820.424,26.023 820.235,24.806 819.958,23.956 C819.819,23.56 819.67,23.218 819.579,23.123 C819.487,22.993 819.519,23.051 819.628,23.106 C819.697,23.204 819.788,23.138 819.567,23.152 C819.458,23.164 819.375,23.123 819.158,23.179 C818.968,23.216 818.808,23.203 818.546,23.292 C817.626,23.489 816.405,23.991 815.195,24.578 C812.74,25.77 810.169,27.341 807.615,28.98 C805.055,30.628 802.484,32.367 799.898,34.113 C794.823,37.527 790.024,41.098 785.553,45.177 C782.828,46.644 780.094,48.171 777.343,49.763 L769.009,54.707 Z" id="Fill-40" fill="#FFFFFF"></path>
            <path d="M562.009,173.707 L562.363,171.749 C562.498,171.162 562.599,170.56 562.678,169.961 C562.863,168.799 562.994,167.703 563.104,166.683 C563.674,166.189 564.275,165.719 564.76,165.144 L565.519,164.311 L566.212,163.433 C568.031,161.07 569.293,158.366 569.873,155.603 C570.394,152.832 570.281,150.036 569.326,147.438 C568.862,146.136 568.226,144.868 567.414,143.675 C567.87,141.619 567.954,139.42 568.009,136.707 C570.719,136.513 573.218,137.098 575.707,138.088 C576.954,139.925 577.987,141.948 578.751,144.095 C580.325,148.394 580.545,153.176 579.675,157.582 C578.759,161.995 576.8,166.064 574.157,169.505 C572.874,171.269 571.302,172.751 569.776,174.265 C569.14,174.355 568.488,174.401 567.861,174.448 C567.207,174.461 566.57,174.466 565.908,174.406 C565.256,174.359 564.615,174.295 563.967,174.184 C563.296,174.035 562.67,173.921 562.009,173.707" id="Fill-42" fill="#FFFFFF"></path>
            <path d="M767.009,158.707 C768.367,160.184 769.612,161.744 770.692,163.377 C771.271,164.188 771.738,165.027 772.269,165.868 C772.757,166.714 773.222,167.574 773.68,168.444 C773.947,172.086 774.195,175.73 774.136,179.384 C774.075,186.686 773.198,193.999 771.454,201.104 C769.743,208.217 767.19,215.125 763.884,221.647 C762.229,224.907 760.401,228.08 758.382,231.125 C756.761,232.244 755.118,233.3 753.379,234.228 C752.502,234.687 751.64,235.143 750.754,235.563 C749.841,235.963 748.954,236.368 748.009,236.707 C748.165,235.709 748.381,234.777 748.535,233.812 C748.733,232.882 748.907,231.948 749.074,231.024 C749.4,229.17 749.747,227.39 750.035,225.618 C751.846,222.887 753.483,220.044 754.964,217.126 C757.924,211.287 760.207,205.11 761.736,198.749 C763.297,192.396 764.081,185.853 764.136,179.3 C764.143,176.026 764.071,172.737 763.624,169.486 L765.25,164.25 C765.793,162.46 766.371,160.62 767.009,158.707" id="Fill-44" fill="#FFFFFF"></path>
            <path d="M818.009,203.707 C819.003,205.887 819.873,208.111 820.564,210.363 C821.284,212.617 821.876,214.901 822.361,217.206 C821.815,221.668 821.276,226.133 820.415,230.549 C819.571,234.966 818.53,239.345 817.322,243.678 C816.052,247.994 814.655,252.275 813.016,256.467 C809.762,264.859 805.728,272.95 800.975,280.592 C798.593,284.41 796.046,288.124 793.329,291.71 C791.382,293.056 789.415,294.347 787.353,295.51 C786.313,296.084 785.29,296.661 784.24,297.201 C783.167,297.721 782.115,298.246 781.009,298.707 C781.356,297.553 781.764,296.469 782.111,295.344 C782.5,294.257 782.866,293.162 783.229,292.077 L785.36,285.67 C787.891,282.328 790.264,278.868 792.482,275.312 C796.909,268.195 800.663,260.662 803.693,252.849 C805.221,248.947 806.519,244.958 807.704,240.938 C808.828,236.899 809.801,232.818 810.588,228.698 L811.136,225.6 L811.609,222.49 C811.778,221.454 811.877,220.409 812.015,219.37 C812.069,218.848 812.174,218.332 812.159,217.803 C812.144,217.273 812.088,216.742 812.297,216.235 L815.06,210.08 C815.991,207.993 816.96,205.872 818.009,203.707" id="Fill-46" fill="#FFFFFF"></path>
            <path d="M795.009,316.707 C796.436,315.793 797.881,314.995 799.334,314.323 C800.789,313.633 802.256,313.041 803.734,312.511 C806.493,312.972 809.268,313.316 812.016,313.84 C817.518,314.838 822.972,316.105 828.341,317.672 C833.715,319.224 839.004,321.065 844.183,323.176 C846.773,324.231 849.334,325.353 851.866,326.539 C852.819,327.802 853.748,329.068 854.601,330.442 L855.86,332.508 C856.251,333.237 856.652,333.939 857.009,334.707 C856.167,334.847 855.376,334.902 854.56,335.018 L852.197,335.239 C850.629,335.394 849.118,335.484 847.618,335.592 C845.243,334.479 842.84,333.428 840.411,332.437 C835.554,330.458 830.594,328.73 825.554,327.275 C820.519,325.807 815.403,324.617 810.241,323.681 C807.657,323.236 805.073,322.761 802.457,322.54 C801.246,321.671 800.021,320.77 798.78,319.806 C797.538,318.863 796.283,317.83 795.009,316.707" id="Fill-48" fill="#FFFFFF"></path>
            <path d="M912.009,486.707 C913.86,485.15 915.515,484.17 917.178,483.176 C918.318,483.685 919.513,484.029 920.678,484.464 L927.709,486.946 C930.056,487.765 932.393,488.613 934.728,489.466 L938.232,490.74 C938.878,492.593 939.536,494.402 940.009,496.707 C938.153,498.165 936.483,499.128 934.801,500.134 L931.32,498.867 C928.999,498.02 926.678,497.177 924.346,496.363 L917.359,493.897 C916.187,493.508 915.046,493.028 913.849,492.712 C913.176,490.893 912.495,489.088 912.009,486.707" id="Fill-50" fill="#FFFFFF"></path>
            <path d="M912.009,557.707 C912.617,557.345 913.179,557.072 913.745,556.733 C914.296,556.445 914.831,556.16 915.359,555.853 L918.31,554.175 C919.874,554.582 921.488,554.726 923.09,554.835 C926.3,555.023 929.529,554.757 932.66,554.061 C935.785,553.335 938.837,552.226 941.691,550.678 C943.119,549.912 944.507,549.059 945.833,548.115 C948.046,548.406 950.296,548.478 953.009,548.707 C953.019,551.427 952.421,553.836 951.638,556.257 C949.969,557.446 948.221,558.523 946.41,559.494 C942.797,561.45 938.882,562.891 934.847,563.818 C930.804,564.72 926.635,565.061 922.505,564.818 C920.436,564.726 918.398,564.383 916.355,564.084 C915.479,563.193 914.663,562.236 913.937,561.16 C913.573,560.622 913.228,560.072 912.898,559.523 C912.585,558.918 912.272,558.361 912.009,557.707" id="Fill-52" fill="#FFFFFF"></path>
            <path d="M287.009,625.707 C290.699,624.809 294.369,623.993 298.023,623.243 C301.678,622.476 305.318,621.753 308.945,621.051 C316.199,621.156 323.453,620.965 330.703,620.742 C345.204,620.25 359.687,619.262 374.119,617.77 C388.55,616.271 402.93,614.28 417.223,611.792 C424.37,610.548 431.495,609.18 438.595,607.689 L449.74,607.62 L455.352,607.619 C457.236,607.659 459.109,607.637 461.009,607.707 C459.355,608.635 457.678,609.487 456.005,610.369 L450.934,612.852 C447.541,614.489 444.106,616.002 440.651,617.476 C433.438,618.99 426.199,620.38 418.939,621.644 C404.418,624.172 389.809,626.194 375.148,627.718 C360.487,629.232 345.772,630.237 331.041,630.736 C323.676,631.008 316.306,631.057 308.936,631.151 C305.252,630.451 301.579,629.649 297.923,628.753 C294.266,627.875 290.627,626.851 287.009,625.707" id="Fill-54" fill="#FFFFFF"></path>
            <path d="M632.009,265.707 C631.945,265.051 631.972,264.467 631.98,263.831 C632.03,263.248 632.091,262.648 632.178,262.06 C632.352,260.878 632.652,259.766 633.041,258.701 C634.612,257.846 636.157,256.951 637.821,256.263 C641.13,254.878 644.7,253.941 648.353,253.735 C649.265,253.681 650.177,253.638 651.09,253.683 C652.003,253.687 652.912,253.755 653.82,253.847 C655.632,254.051 657.426,254.412 659.171,254.92 C660.918,255.426 662.609,256.09 664.234,256.876 C665.191,259.026 665.909,261.181 666.009,263.707 C663.605,264.466 661.675,265.057 659.871,265.874 C658.738,265.327 657.567,264.865 656.368,264.52 C655.17,264.171 653.948,263.926 652.715,263.786 C652.097,263.726 651.478,263.678 650.858,263.68 C650.238,263.642 649.619,263.679 649.001,263.714 C646.527,263.845 644.082,264.492 641.742,265.462 C640.587,265.981 639.414,266.518 638.378,267.275 C637.461,267.01 636.491,266.76 635.432,266.488 C634.893,266.341 634.36,266.226 633.801,266.109 C633.216,265.957 632.651,265.859 632.009,265.707" id="Fill-56" fill="#FFFFFF"></path>
            <path d="M632.009,277.707 C633.318,275.659 634.707,274.253 636.158,272.872 C637.487,273.077 638.825,273.146 640.152,273.345 C642.808,273.697 645.447,274.187 648.052,274.816 C650.656,275.447 653.229,276.211 655.753,277.11 C657.015,277.56 658.266,278.042 659.503,278.558 C660.154,280.475 660.744,282.358 661.009,284.707 C659.014,285.975 657.319,286.835 655.657,287.789 C654.583,287.341 653.496,286.921 652.399,286.53 C650.204,285.749 647.969,285.085 645.705,284.537 C643.441,283.99 641.148,283.564 638.839,283.258 C637.683,283.127 636.53,282.933 635.362,282.94 C634.317,281.362 633.203,279.824 632.009,277.707" id="Fill-58" fill="#FFFFFF"></path>
            <path d="M712.009,281.707 C712.669,281.503 713.285,281.405 713.944,281.282 C714.569,281.205 715.2,281.153 715.842,281.119 C717.113,281.063 718.365,281.15 719.584,281.36 C720.982,282.852 722.379,284.352 723.557,286.044 C725.94,289.398 727.713,293.223 728.653,297.254 C729.613,301.285 729.773,305.493 729.173,309.52 C728.877,311.535 728.421,313.514 727.798,315.436 C725.733,316.876 723.608,318.107 721.009,318.707 C720.058,316.231 719.272,314.227 718.286,312.351 C718.738,310.954 719.064,309.521 719.277,308.086 C719.705,305.211 719.578,302.328 718.925,299.572 C718.284,296.805 717.067,294.182 715.415,291.85 C714.57,290.7 713.672,289.555 712.563,288.621 C712.539,287.607 712.467,286.554 712.39,285.394 C712.353,284.812 712.295,284.226 712.217,283.633 C712.173,282.994 712.073,282.396 712.009,281.707" id="Fill-60" fill="#FFFFFF"></path>
            <path d="M851.009,492.707 C852.508,493.698 853.915,494.702 855.232,495.726 C856.571,496.738 857.84,497.764 859.079,498.784 C860.161,501.455 861.473,504.023 862.742,506.607 C865.333,511.751 868.133,516.791 871.163,521.688 C874.179,526.594 877.417,531.363 880.854,535.984 C882.571,538.296 884.338,540.57 886.156,542.804 C886.491,544.387 886.853,545.969 887.151,547.626 L887.616,550.115 C887.738,550.981 887.906,551.811 888.009,552.707 C887.138,552.494 886.324,552.222 885.483,551.969 L883.062,551.101 C881.451,550.507 879.921,549.822 878.398,549.112 C876.488,546.767 874.632,544.379 872.828,541.951 C869.219,537.098 865.819,532.089 862.651,526.936 C859.469,521.792 856.528,516.5 853.808,511.099 C852.429,508.406 851.2,505.644 849.86,502.932 C849.886,501.262 849.978,499.578 850.158,497.877 C850.324,496.182 850.611,494.455 851.009,492.707" id="Fill-62" fill="#FFFFFF"></path>
            <path d="M808.009,286.707 C808.666,286.472 809.271,286.327 809.905,286.133 L811.716,285.706 C812.917,285.431 814.071,285.241 815.2,285.091 C816.697,286.091 818.28,286.942 819.815,287.875 L829.095,293.359 L838.351,298.881 L842.972,301.654 C843.729,303.881 844.508,306.066 845.009,308.707 C842.434,309.502 840.137,309.842 837.818,310.224 L833.211,307.459 L823.984,301.954 L814.734,296.488 C813.18,295.597 811.675,294.623 810.082,293.798 C809.668,292.735 809.278,291.633 808.935,290.445 L808.43,288.649 C808.291,288 808.124,287.398 808.009,286.707" id="Fill-64" fill="#FFFFFF"></path>
        </g>
    </g>
</svg>