<?xml version="1.0" encoding="UTF-8"?>
<svg width="765px" height="1052px" viewBox="0 0 765 1052" version="1.1" xmlns="http://www.w3.org/2000/svg" xmlns:xlink="http://www.w3.org/1999/xlink">
    <!-- Generator: Sketch 51.2 (57519) - http://www.bohemiancoding.com/sketch -->
    <title>Untitled 3</title>
    <desc>Created with Sketch.</desc>
    <defs></defs>
    <g id="Page-1" stroke="none" stroke-width="1" fill="none" fill-rule="evenodd">
        <g id="solman">
            <g id="Group" transform="translate(73.000000, 46.000000)" fill="#FFFFFF" fill-rule="nonzero">
                <path d="M545,277 C540,261 518,240 505,223 C492,206 452,188 450,186 C448,184 424,179 406,176 C388,173 364,162 362,159 C360,156 320,152 320,152 C320,152 284,154 282,155 C280,156 229,174 229,174 C229,174 195,187 181,204 C167,221 163,257 163,257 L162,294 L163,324 C161,342 184,389 196,415 C208,441 228,453 228,453 C228,453 249,454 256,453 C263,452 282,458 282,458 C294,468 282,478 282,478 L275,479 L255,469 C228,459 219,474 219,474 L200,499 L183,524 C183,524 164,537 158,546 C152,555 125,566 123,566 C121,566 113,572 113,572 C106.5,578.5 111.5,589.5 111.5,589.5 C117.5,607.5 134.5,596.5 134.5,596.5 L166.5,571.5 C166.5,571.5 210.5,532.5 224.5,519.5 C238.5,506.5 246.5,520.5 246.5,520.5 C246.5,520.5 257.5,537.5 262.5,544.5 C267.5,551.5 266.5,568.5 266.5,568.5 L267.5,600.5 C267.5,600.5 270.5,617.5 272.5,627.5 C274.5,637.5 272.5,654.5 272.5,666.5 C272.5,678.5 269.5,691.5 269.5,691.5 C269.5,691.5 260.5,708.5 256.5,714.5 C252.5,720.5 254.5,735.5 254.5,742.5 C254.5,749.5 260.5,777.5 260.5,777.5 L260.5,810.5 L260.5,910.5 C260.5,910.5 261.5,932.5 261.5,949.5 C261.5,966.5 271.5,967.5 271.5,967.5 L298.5,986.5 C298.5,986.5 317.5,1006.5 332.5,1005.5 C347.5,1004.5 341.5,989.5 341.5,989.5 C326.5,983.5 295.5,956.5 295.5,956.5 C295.5,956.5 284.5,947.5 281.5,940.5 C278.5,933.5 280.5,921.5 280.5,921.5 L281.5,894.5 L282.5,839.5 L285.5,803.5 L286.5,748.5 C293.5,738.5 303.5,746.5 303.5,746.5 L303.5,758.5 L303.5,806.5 L304.5,860.5 L302.5,891.5 C302.5,891.5 300.5,905.5 294.5,919.5 C288.5,933.5 297.5,940.5 297.5,940.5 L317.5,955.5 C317.5,957.5 335.5,966.5 335.5,966.5 C335.5,966.5 352.5,969.5 356.5,966.5 C360.5,963.5 357.5,951.5 357.5,951.5 L351.5,945.5 C351.5,945.5 335.5,936.5 330.5,934.5 C325.5,932.5 320.5,923.5 320.5,923.5 L322.5,883.5 L325.5,817.5 L330.5,782.5 C330.5,782.5 333.5,758.5 334.5,756.5 C335.5,754.5 335.5,724.5 335.5,724.5 C337.5,716.5 331.5,692.5 332.5,687.5 C333.5,682.5 319.5,643.5 319.5,630.5 C319.5,617.5 320.5,605.5 320.5,605.5 L332.5,565.5 C331.5,557.5 347.5,531.5 347.5,531.5 C360.5,519.5 365.5,531.5 371.5,532.5 C377.5,533.5 385.5,550.5 385.5,550.5 C385.5,555.5 410.5,600.5 410.5,600.5 L431.5,625.5 L441.5,643.5 C441.5,643.5 450.5,664.5 470.5,653.5 C490.5,642.5 478.5,625.5 477.5,625.5 C476.5,625.5 457.5,619.5 457.5,619.5 C449.1,613.9 433.3,596.4 422,576 C409.1,552.7 401,526.2 400.5,522.5 C399.5,515.5 387.5,505.5 382.5,499.5 C377.5,493.5 361.5,489.5 361.5,489.5 L324.5,489.5 C305.5,475.5 326.5,464.5 326.5,464.5 L370.5,466.5 C370.5,466.5 439,464 447,464 C470.3,464 482.4,451.9 487,449 C497.1,442.7 503.9,436 509.5,430.5 C516.4,423.7 527.5,412.5 536.5,395.5 C547.3,375.2 550.3,355.5 551,342 C551,342 550,293 545,277 Z M315.5,399.5 C306.6,398.7 303.4,400.4 290.5,399.5 C282.6,399 276.5,398.6 270.5,396.5 C258.5,392.3 251.9,383.1 244.5,372.5 C232.9,355.8 218.3,335 224.5,315.5 C227.4,306.2 232.8,304.3 234.5,292.5 C236,281.9 232.4,277.9 234.5,269.5 C236.9,259.8 244.3,254 251.5,248.5 C271.5,233.3 293.9,230.3 303.5,229.5 C323.3,227.9 337.5,232 356.5,237.5 C368.9,241.1 394.5,249.5 423.5,268.5 C447.6,284.3 461.1,293.1 468.5,311.5 C470.5,316.5 476.2,332.4 471.5,351.5 C465.4,376.4 445.7,389.4 436.5,395.5 C416.6,408.6 397.1,410.6 386.5,411.5 C377.2,412.3 360.4,413.8 341.5,407.5 C331.1,404.1 326.8,400.5 315.5,399.5 Z M521.5,358.5 C511.7,393.7 479.8,424.1 478.5,425.5 C467.5,437.5 419.5,443.5 419.5,443.5 C419.5,443.5 339.5,449.5 326.5,443.5 C313.5,437.5 327.5,426.5 327.5,426.5 C327.5,426.5 354.5,423.5 381.5,428.5 C408.5,433.5 455.5,402.5 455.5,402.5 C483.5,390.5 490.5,362.5 492.5,353.5 C494.5,344.5 491.5,309.5 491.5,309.5 C491.5,309.5 485.5,283.5 447.5,254.5 C409.5,225.5 391.5,222.5 391.5,222.5 C391.5,222.5 338.5,212.5 315.5,210.5 C292.5,208.5 262.5,218.5 242.5,229.5 C222.5,240.5 209.5,283.5 206.5,300.5 C203.5,317.5 210.5,353.5 210.5,353.5 C210.5,353.5 225.5,382.5 232.5,391.5 C239.5,400.5 249.5,409.5 249.5,409.5 C249.5,409.5 264.5,419.5 271.5,420.5 C278.5,421.5 283.5,423.5 283.5,423.5 C283.5,423.5 286.5,428.5 280.5,430.5 C274.5,432.5 255.5,426.5 255.5,426.5 L237.5,418.5 C237.5,418.5 221.5,403.5 211.5,392.5 C201.5,381.5 190.5,322.5 190.5,322.5 L190.5,260.5 C187.5,232.5 207.5,222.5 212.5,217.5 C217.5,212.5 261.5,197.5 261.5,197.5 C261.5,197.5 289.5,188.5 303.5,185.5 C317.5,182.5 358.5,192.5 358.5,192.5 C358.5,192.5 401.5,202.5 411.5,201.5 C421.5,200.5 482.5,243.5 482.5,243.5 L516.5,282.5 C518.9,283.4 531.3,323.3 521.5,358.5 Z" id="Shape"></path>
                <path d="M233.5,330.5 C230.2,326.1 231.7,319.5 234.5,315.5 C237.5,311.2 242,309.9 243.5,309.5 C245.2,309 250.5,307.5 255.5,310.5 C256.4,311 260.8,313.6 261.5,318.5 C262.1,322.3 260,325.3 258.5,327.5 C257.7,328.6 255.6,331.6 251.5,333.5 C250.3,334.1 245.8,335.9 240.5,334.5 C238.6,334 235.5,333.2 233.5,330.5 Z" id="Shape"></path>
                <path d="M242.5,284.5 C243.7,278.2 249.1,269.6 258.5,268.5 C265.5,267.7 272,271.3 275.5,276.5 C278.7,281.2 278.6,286.1 278.5,287.5 C278.4,289.5 277.8,296.9 271.5,301.5 C264.3,306.8 255.7,303.9 254.5,303.5 C249.1,301.6 243.8,296.9 242.5,290.5 C242.4,289.9 241.9,287.6 242.5,284.5 Z" id="Shape"></path>
                <path d="M290.5,248.5 C298.5,242.2 311.5,245.3 316.5,253.5 C321.4,261.6 316.2,271.3 315.5,272.5 C314.4,274.5 310.6,281.6 303.5,282.5 C295.5,283.6 287.9,276.1 285.5,268.5 C283.6,262.5 284.2,253.5 290.5,248.5 Z" id="Shape"></path>
                <path d="M348.5,254.5 C356.9,252 366.6,256.3 370.5,264.5 C373.3,270.5 372.8,278 368.5,283.5 C363.2,290.3 355.1,290.5 353.5,290.5 C351.3,290.5 343.4,290.1 338.5,283.5 C333.3,276.4 335.9,268.1 336.5,266.5 C336.9,265.4 340,257 348.5,254.5 Z" id="Shape"></path>
                <path d="M389.5,274.5 C396.6,269.4 406.8,269.6 413.5,275.5 C419,280.4 422.1,289.2 418.5,296.5 C414.1,305.4 402.8,305.5 400.5,305.5 C398.9,305.5 386.5,305.1 382.5,295.5 C379.3,287.8 383.4,279 389.5,274.5 Z" id="Shape"></path>
                <path d="M432.5,316.5 C433.3,315.9 442.5,309.7 450.5,314.5 C457.2,318.5 457.5,326.8 457.5,327.5 C457.6,334.4 453.1,339 450.5,341.5 C447.8,344.2 442.1,349.9 435.5,348.5 C428.4,347 424,338 424.5,330.5 C425,321.9 431.7,317.1 432.5,316.5 Z" id="Shape"></path>
                <path d="M349.5,352.5 C354.5,348.8 361.8,351.7 365.5,354.5 C369.7,357.7 374.7,364.9 371.5,371.5 C368.7,377.2 361.2,379.4 355.5,377.5 C348.9,375.4 346.8,368.6 346.5,367.5 C345.3,363.7 344.6,356.2 349.5,352.5 Z" id="Shape"></path>
                <path d="M407.5,353.5 C415.4,351.6 423.2,357.4 425.5,364.5 C427.3,370 426.2,377.5 420.5,381.5 C413.4,386.5 404.9,381.7 404.5,381.5 C399.8,378.8 395.8,373.2 396.5,366.5 C397.1,360.4 401.6,354.9 407.5,353.5 Z" id="Shape"></path>
                <path d="M322.5,309.5 C315.3,306.2 307.7,306.4 305.5,306.5 C297.7,306.8 292.1,309.3 289.5,310.5 C278.4,315.6 257.8,330.5 259.5,351.5 C260.6,365 270.3,373.5 271.5,374.5 C281.1,382.7 292.3,382.6 298.5,382.5 C303.2,382.5 315.3,382.2 326.5,373.5 C329.4,371.3 340.6,362.6 342.5,347.5 C344.5,331.6 335.4,315.4 322.5,309.5 Z M326.5,358.5 C322.3,365 315.2,366.5 310.5,367.5 C307.6,368.1 299.4,369.7 290.5,365.5 C287.6,364.1 277.2,359.2 275.5,348.5 C274,339.3 280.1,332.2 281.5,330.5 C282.4,329.5 289.3,321.7 300.5,321.5 C310.1,321.4 316.4,326.8 319.5,329.5 C322.3,331.9 326.8,335.8 328.5,342.5 C328.9,344.1 330.9,351.7 326.5,358.5 Z" id="Shape"></path>
                <path d="M290.5,333.5 C297.2,328 306.7,333 307.5,333.5 C309.1,334.4 314.7,337.5 315.5,343.5 C316.3,349.6 311.8,355.3 306.5,357.5 C300.5,360.1 292.6,358.4 288.5,352.5 C284.4,346.5 285.2,337.9 290.5,333.5 Z" id="Shape"></path>
                <path d="M87.5,465.5 C87.4,456.3 93.6,447.8 101.5,445.5 C114.9,441.6 131.5,455.7 129.5,469.5 C128.1,478.6 118.7,487.1 107.5,486.5 C96.3,485.9 87.6,476.2 87.5,465.5 Z" id="Shape"></path>
                <path d="M169.5,458.5 C175.1,451.1 190.1,448.8 198.5,457.5 C206.2,465.5 204.2,478.5 197.5,485.5 C192.5,490.7 183.5,494.1 176.5,490.5 C169.7,487 168.2,478.8 167.5,474.5 C166.8,470.6 165.6,463.7 169.5,458.5 Z" id="Shape"></path>
                <path d="M151.5,412.5 C157.6,407.2 166.9,408.8 172.5,411.5 C181.5,415.9 184,425.2 184.5,427.5 C185.1,430.1 186.2,435.3 183.5,440.5 C180.4,446.4 174,449.3 168.5,449.5 C158.9,449.9 152.8,442.3 151.5,440.5 C145.8,432.8 143.8,419.2 151.5,412.5 Z" id="Shape"></path>
                <path d="M117.5,367.5 C127.5,362.6 137.7,370.1 139.5,371.5 C141.5,373 148,378.1 148.5,386.5 C149,395.3 142.6,404.2 133.5,406.5 C123.9,409 115.5,403 111.5,397.5 C110.4,396 106,389.8 107.5,381.5 C107.7,380.4 109.4,371.4 117.5,367.5 Z" id="Shape"></path>
                <path d="M14.5,362.5 C13.9,356.5 13.3,349.7 17.5,345.5 C22.6,340.5 32.3,341.5 38.5,345.5 C46.3,350.5 47.3,359.6 47.5,361.5 C47.8,363.9 48.3,369.8 44.5,375.5 C43.7,376.6 39.1,383.5 31.5,383.5 C23.3,383.5 18.5,375.3 17.5,373.5 C15.2,369.5 14.8,365.8 14.5,362.5 Z" id="Shape"></path>
                <path d="M1.5,269.5 C4.2,262.8 10.7,258.3 17.5,257.5 C25.6,256.5 33.6,260.7 37.5,267.5 C42.7,276.6 38.2,285.9 37.5,287.5 C36.6,289.4 32.4,298.2 23.5,299.5 C13.6,301 6.6,291.9 5.5,290.5 C4.4,289.1 -2.7,279.9 1.5,269.5 Z" id="Shape"></path>
                <path d="M30.5,179.5 C31,179.4 40.4,177 47.5,183.5 C53.6,189.1 54.3,198 51.5,204.5 C51.1,205.5 47.4,213.9 38.5,215.5 C30.5,216.9 22.9,212 19.5,205.5 C16.5,199.7 16.6,192.2 20.5,186.5 C24,181.5 29.1,179.9 30.5,179.5 Z" id="Shape"></path>
                <path d="M71.5,126.5 C76.2,122.5 84.2,119.9 91.5,123.5 C97.4,126.4 101.6,132.6 101.5,139.5 C101.4,148.7 93.7,153.7 92.5,154.5 C87.1,157.9 78.2,159.7 71.5,154.5 C65.6,149.9 64.3,142.2 65.5,136.5 C66.7,130.8 70.4,127.4 71.5,126.5 Z" id="Shape"></path>
                <path d="M97.5,296.5 C103.3,291.9 110,292.4 111.5,292.5 C122.2,293.6 127.2,303 127.5,303.5 C130.8,310 131.1,319.2 125.5,325.5 C119.7,332.1 111,331.6 109.5,331.5 C108.3,331.4 97.6,330.7 92.5,321.5 C87.9,313.1 90.5,302.2 97.5,296.5 Z" id="Shape"></path>
                <path d="M107.5,239.5 C113.7,233.7 124,237 125.5,237.5 C127.1,238 135.7,240.7 139.5,249.5 C142,255.2 142.9,264.4 137.5,269.5 C133.3,273.5 127.2,273 121.5,272.5 C115.9,272 109.6,271.5 105.5,266.5 C100.1,259.9 102.7,250.6 103.5,247.5 C104.3,244.5 105,241.8 107.5,239.5 Z" id="Shape"></path>
                <path d="M135.5,179.5 C139.4,174.3 150.7,174 158.5,178.5 C159.4,179 169.7,185.2 169.5,196.5 C169.3,205.8 162.2,211.3 160.5,212.5 C154.9,216.5 145.4,219.2 138.5,214.5 C132.8,210.6 131.7,203.7 131.5,202.5 C131.2,200.3 131.5,199.6 133.5,188.5 C134.9,180.8 134.8,180.4 135.5,179.5 Z" id="Shape"></path>
                <path d="M154.5,66.5 C155.2,65.9 162.9,59.3 171.5,62.5 C177.6,64.8 180.1,70.4 180.5,71.5 C183.9,79.9 178.6,87.8 177.5,89.5 C175.9,91.9 171.7,98.1 164.5,98.5 C157.6,98.9 151.9,93.6 149.5,88.5 C145.9,80.8 148.7,71.6 154.5,66.5 Z" id="Shape"></path>
                <path d="M176.5,137.5 C183,125.8 206,125.7 212.5,136.5 C216.4,143 214.2,153.5 207.5,159.5 C200.5,165.8 189.2,166.9 181.5,160.5 C174.4,154.6 172.8,144.1 176.5,137.5 Z" id="Shape"></path>
                <path d="M233.5,121.5 C234,120 238.3,107.4 249.5,106.5 C258.3,105.8 267,112.6 268.5,121.5 C270.3,132.8 259.3,140 258.5,140.5 C252.2,144.5 241.4,146.6 235.5,140.5 C229.2,134.1 233,123.1 233.5,121.5 Z" id="Shape"></path>
                <path d="M215.5,42.5 C215.8,41.9 221.3,32.7 230.5,32.5 C239.8,32.3 245.5,41.3 247.5,44.5 C249.5,47.7 252.6,52.5 251.5,58.5 C249.8,68.3 238.6,72.2 237.5,72.5 C235.8,73.1 228.3,75.5 221.5,71.5 C212.9,66.4 211.7,54.6 213.5,47.5 C214.1,44.9 215.1,43.1 215.5,42.5 Z" id="Shape"></path>
                <path d="M293.5,11.5 C293.8,10.8 298.6,1 308.5,0.5 C319.2,-0.1 325.1,10.8 325.5,11.5 C329,18.2 329.8,28.9 322.5,35.5 C316.4,41 307.1,41.4 300.5,37.5 C291.4,32.1 289.6,19.8 293.5,11.5 Z" id="Shape"></path>
                <path d="M375.5,14.5 C385.2,6.1 402.6,9.9 407.5,20.5 C410.6,27.2 408.2,35.5 403.5,40.5 C395.3,49.2 378.2,49.5 371.5,39.5 C366.4,31.9 368.6,20.5 375.5,14.5 Z" id="Shape"></path>
                <path d="M439.5,33.5 C439,22.7 448.6,14.2 457.5,12.5 C459.1,12.2 464.8,11.2 470.5,14.5 C475.9,17.7 477.9,22.7 478.5,24.5 C479,25.8 481,31.7 478.5,38.5 C476.1,45.1 470.3,50 463.5,51.5 C461.5,51.9 455.5,52.9 449.5,49.5 C443.7,46.2 439.8,40.1 439.5,33.5 Z" id="Shape"></path>
                <path d="M307.5,108.5 C312,101.8 322.3,100.3 329.5,103.5 C334,105.5 336.4,108.9 337.5,110.5 C338.5,111.9 344.4,120.6 340.5,128.5 C337.6,134.3 331.3,136 329.5,136.5 C323.2,138.2 315.5,136.7 310.5,131.5 C306.5,127.3 305.7,122.3 305.5,120.5 C305.2,118.2 304.5,113 307.5,108.5 Z" id="Shape"></path>
                <path d="M358.5,105.5 C365.6,101.7 373,105.7 374.5,106.5 C375.7,107.1 384,111.6 384.5,120.5 C384.9,128.4 378.8,133.5 377.5,134.5 C376.9,135 369,141 360.5,137.5 C352.7,134.3 349.7,125.3 350.5,118.5 C350.6,117.3 351.6,109.2 358.5,105.5 Z" id="Shape"></path>
                <path d="M397.5,122.5 C401.7,116.5 409.4,115.7 411.5,115.5 C414.7,115.2 420.6,114.6 424.5,118.5 C428.4,122.4 427.8,128.3 427.5,131.5 C427.3,133.6 426.6,140.7 420.5,145.5 C415.9,149.2 410.8,149.4 408.5,149.5 C406.6,149.6 397.5,149.8 394.5,144.5 C393.4,142.6 393.8,139.9 394.5,134.5 C395.4,128.2 395.8,125 397.5,122.5 Z" id="Shape"></path>
                <path d="M450.5,132.5 C452.2,130.1 457.3,122.7 466.5,121.5 C467.9,121.3 477.3,120.1 482.5,126.5 C487,132 485.3,139.2 484.5,142.5 C484,144.8 482.4,151 476.5,155.5 C470.1,160.3 463.1,159.7 460.5,159.5 C456.8,159.2 449.8,158.6 446.5,153.5 C441.4,145.7 449.5,133.9 450.5,132.5 Z" id="Shape"></path>
                <path d="M533.5,60.5 C537.6,50.8 548.7,48.8 550.5,48.5 C552.9,48.1 561.5,46.6 568.5,52.5 C575.6,58.5 575.5,67.2 575.5,68.5 C575.2,80.2 565,86.2 564.5,86.5 C557.3,90.5 548.3,90.2 541.5,85.5 C533.6,80 529.8,69.3 533.5,60.5 Z" id="Shape"></path>
                <path d="M518.5,183.5 C513.4,175.4 517.5,166.6 518.5,164.5 C519.2,162.9 523.2,154.5 532.5,152.5 C533.7,152.2 542.3,150.6 548.5,156.5 C553.7,161.5 553.6,168.4 553.5,170.5 C553.3,179.5 547.2,185.1 545.5,186.5 C543.8,188 540.1,191.1 534.5,191.5 C528.5,191.9 522,189 518.5,183.5 Z" id="Shape"></path>
                <path d="M613.5,120.5 C621.2,114.3 631.6,117.6 634.5,118.5 C638.1,119.6 645.8,122.1 648.5,129.5 C651.3,137.3 646.2,144.5 645.5,145.5 C641,151.7 634.3,153 631.5,153.5 C629.1,154 617.2,156.3 610.5,148.5 C603.8,140.8 605.5,126.9 613.5,120.5 Z" id="Shape"></path>
                <path d="M572.5,212.5 C579.5,208.5 588.4,211.7 593.5,216.5 C600.6,223.2 599.6,232.6 599.5,233.5 C599.3,235.4 598.3,241 593.5,245.5 C592.2,246.7 588.4,250.3 582.5,250.5 C574.6,250.8 569.5,244.7 568.5,243.5 C564.2,238.1 564.4,232 564.5,229.5 C564.6,226.7 565,216.8 572.5,212.5 Z" id="Shape"></path>
                <path d="M662.5,210.5 C664.3,208 667.7,203.3 673.5,202.5 C682.1,201.4 688,209.8 688.5,210.5 C692.4,216.2 691.7,222.3 691.5,224.5 C691.2,227.5 690.4,234.4 684.5,238.5 C679.5,242 672.8,242.2 667.5,239.5 C660.2,235.8 658.8,228.1 658.5,226.5 C657,218.3 661.4,212.1 662.5,210.5 Z" id="Shape"></path>
                <path d="M587.5,311.5 C595.1,305.8 604.1,308.1 605.5,308.5 C606.4,308.8 618.9,312.5 620.5,323.5 C622,333.9 612.4,340.8 611.5,341.5 C605.2,345.9 597.1,346.5 590.5,343.5 C589,342.8 583,340.1 580.5,333.5 C577.5,325.6 581,316.4 587.5,311.5 Z" id="Shape"></path>
                <path d="M651.5,320.5 C654.4,319.4 664.8,315.5 673.5,321.5 C674.6,322.2 680.1,326.2 681.5,333.5 C683.3,342.4 677.6,349.1 676.5,350.5 C675.5,351.7 669.1,359.3 659.5,358.5 C649.8,357.7 644.9,348.9 643.5,346.5 C642.5,344.6 637.1,335.1 641.5,327.5 C643.9,323.4 648,321.8 651.5,320.5 Z" id="Shape"></path>
                <path d="M409.5,480.5 C416.5,473.6 426,475.4 426.5,475.5 C427.6,475.7 435.6,477.5 439.5,485.5 C443.2,493.1 440,500.3 439.5,501.5 C439.2,502.2 434.7,511.4 424.5,512.5 C417.2,513.3 410.2,509.6 406.5,503.5 C402,496 403.6,486.3 409.5,480.5 Z" id="Shape"></path>
                <path d="M459.5,490.5 C466.8,486.7 474.1,489.9 475.5,490.5 C477.4,491.3 483.8,494.1 485.5,500.5 C486.9,506 483.8,510.9 481.5,514.5 C479.5,517.6 472.4,528.7 463.5,527.5 C454.4,526.3 448,512.8 450.5,502.5 C450.9,500.9 452.8,494 459.5,490.5 Z" id="Shape"></path>
                <path d="M503.5,465.5 C508.7,461.2 518,458.1 525.5,462.5 C534.6,467.8 537.8,482 530.5,490.5 C524.5,497.5 513.7,497.9 506.5,493.5 C500.3,489.7 495.8,481.9 497.5,474.5 C498.6,469.5 502.2,466.6 503.5,465.5 Z" id="Shape"></path>
                <path d="M542.5,433.5 C552.2,426.5 570.7,433.5 572.5,444.5 C573.8,452.1 567.2,461.7 557.5,463.5 C548.2,465.2 538.6,459.3 536.5,450.5 C535,444.1 537.6,437.1 542.5,433.5 Z" id="Shape"></path>
                <path d="M567.5,400.5 C569.6,396.2 573.3,394.2 576.5,392.5 C579.2,391 589.8,385.3 599.5,390.5 C600.9,391.2 606.8,394.7 608.5,401.5 C610.8,410.6 604.1,419.4 597.5,423.5 C596.5,424.1 584.6,431.2 574.5,424.5 C566.5,419.2 563.8,408 567.5,400.5 Z" id="Shape"></path>
                <path d="M615.5,442.5 C618.6,436.4 623.7,433.4 625.5,432.5 C627.3,431.6 638.1,426.4 646.5,432.5 C653.9,437.9 653.6,447.7 653.5,449.5 C652.9,460 644.6,465.8 643.5,466.5 C636.7,471.1 624.7,473.5 617.5,466.5 C610.7,459.8 612.3,448.8 615.5,442.5 Z" id="Shape"></path>
                <path d="M547.5,500.5 C550.3,499.6 553.4,500.6 559.5,502.5 C564.8,504.2 567.5,505 569.5,507.5 C572.9,511.8 571.8,517.6 571.5,519.5 C571.4,520.3 569,531.9 559.5,534.5 C550.7,536.9 541,530.2 538.5,521.5 C536,512.7 541,502.5 547.5,500.5 Z" id="Shape"></path>
                <path d="M484.5,561.5 C479.3,554.1 483.2,543.6 489.5,538.5 C496.4,532.9 507.9,532.2 513.5,538.5 C519.7,545.6 516.2,559.1 507.5,564.5 C500.7,568.7 489.7,568.7 484.5,561.5 Z" id="Shape"></path>
            </g>
            <g id="Group"></g>
        </g>
    </g>
</svg>